<svg width="100" height="66" viewBox="0 0 100 66" fill="none" xmlns="http://www.w3.org/2000/svg">
<path fill-rule="evenodd" clip-rule="evenodd" d="M8.19593 35.8564C5.49582 35.8564 2.36559 37.3114 0.669056 38.8204L2.22222 42.4851C3.58423 41.0839 5.78255 39.8983 7.76583 39.8983C9.65352 39.8983 10.681 40.5989 10.681 42.027C10.681 42.9971 9.98805 43.4821 8.69773 43.6707C3.82318 44.3713 0 45.8803 0 50.1108C0 53.4521 2.12664 55.5 5.42413 55.5C7.78972 55.5 9.89247 54.018 10.8961 52.0779V54.9611H15.2927V42.8623C15.2927 37.8773 12.2103 35.8564 8.19593 35.8564ZM6.54719 51.6198C5.30466 51.6198 4.68339 50.9462 4.68339 49.8144C4.68339 47.7126 6.76224 47.012 10.5615 46.5539C10.5854 49.3563 8.88888 51.6198 6.54719 51.6198ZM56.7503 39.521V36.3953H52.3536V54.9611H57.0609V46.015C57.0609 41.7575 59.3309 40.518 60.9319 40.518C61.5531 40.518 62.3895 40.7336 62.939 41.1917L63.7992 36.2875C63.0824 35.9372 62.3178 35.8564 61.6965 35.8564C59.2831 35.8564 57.7539 37.0689 56.7503 39.521ZM85.6391 35.8564C83.1541 35.8564 81.2903 37.527 80.3106 39.1168C79.4026 37.042 77.5149 35.8564 75.221 35.8564C72.7359 35.8564 71.0155 37.4192 70.2031 39.1977V36.3953H65.663V54.9611H70.3703V45.3953C70.3703 41.9731 71.9713 40.3294 73.4528 40.3294C74.7909 40.3294 76.0334 41.2995 76.0334 43.8324V54.9611H80.7646V45.3953C80.7646 41.9192 82.3178 40.3294 83.8709 40.3294C85.1135 40.3294 86.4277 41.3534 86.4277 43.8054V54.9611H91.135V42.1348C91.135 37.9581 88.6499 35.8564 85.6391 35.8564ZM31.9235 35.021V36.3953H24.779V34.5091C24.779 32.057 26.0215 31.3564 27.0968 31.3564C27.718 31.3564 28.5304 31.518 29.1995 31.9492L30.6571 28.2037C29.7969 27.6378 28.3871 27.1258 26.4994 27.1258C23.4886 27.1258 20.0717 29.039 20.0717 35.048V36.4222H17.3477V40.518H20.0717V54.9611H24.779V40.4911H31.9235V54.9611H36.6308V40.4911H40.908V36.3953H36.6308V34.5091C36.6308 32.057 37.8733 31.3564 38.9486 31.3564C40.1433 31.3564 41.0514 31.9492 41.0514 31.9492L42.5089 28.2037C42.5089 28.2037 41.0275 27.1258 38.3512 27.1258C35.3644 27.0989 31.9235 29.0121 31.9235 35.021ZM43.7037 36.3953H48.411V54.9611H43.7037V36.3953Z" fill="#060809"/>
<path fill-rule="evenodd" clip-rule="evenodd" d="M71.1347 10.5C58.4226 10.5 47.0964 20.4431 43.8945 33.2425H48.5062C51.1825 23.7036 60.2864 15.3503 71.1347 15.3503C84.3246 15.3503 95.6986 26.6676 95.6986 44.2904C95.6986 48.2514 95.2446 51.8083 94.3844 54.961H98.8527L98.9005 54.7993C99.6412 51.5389 99.9996 48.0089 99.9996 44.2904C99.9996 24.6467 87.3115 10.5 71.1347 10.5Z" fill="#0FA0EA"/>
</svg>
