<svg width="326" height="96" viewBox="0 0 326 96" fill="none" xmlns="http://www.w3.org/2000/svg">
<path d="M11.4221 0C5.11941 0 0 5.088 0 11.352V84.648C0 90.888 5.11941 96 11.4221 96H314.409C320.687 96 326 90.888 326 84.648V11.352C326 5.088 320.687 0 314.409 0H11.4221ZM68.1702 14.928C68.5807 18.552 67.1319 22.104 65.031 24.744C62.8335 27.312 59.3078 29.304 55.8788 29.04C55.42 25.56 57.1587 21.84 59.1147 19.584C61.3121 17.016 65.1275 15.048 68.1702 14.928ZM169.134 15.744H171.669V32.232H169.134V15.744ZM210.572 15.744H212.987V29.184C212.987 30.288 213.228 31.32 213.228 32.232H210.958V30.432C210.234 31.8 209.026 32.496 207.312 32.496C205.935 32.496 204.8 31.968 203.883 30.888C202.989 29.832 202.531 28.44 202.531 26.712C202.531 24.888 203.013 23.4 204.004 22.272C204.945 21.216 206.129 20.688 207.505 20.688C209.051 20.688 210.113 21.192 210.717 22.224L210.572 15.744ZM269.01 15.744H271.425V22.56H271.667C272.391 21.312 273.599 20.688 275.047 20.688C276.013 20.688 276.979 21.024 277.704 21.72C278.428 22.56 278.911 23.832 278.911 25.512V32.232H276.255V25.8C276.255 23.784 275.53 22.752 274.081 22.752C272.874 22.752 272.15 23.352 271.667 24.528C271.667 24.768 271.425 25.08 271.425 25.44V32.232H269.01V15.744ZM109.826 16.44C112.603 16.44 114.68 17.04 116.08 18.216C117.65 19.584 118.447 21.504 118.447 24.024C118.447 26.856 117.601 28.968 115.887 30.408C114.317 31.728 112.072 32.376 109.174 32.376C107.725 32.376 106.493 32.376 105.479 32.136V16.704C106.807 16.464 108.256 16.392 109.826 16.392V16.44ZM262.732 18.096V20.928H265.388V22.8H262.732V28.296C262.732 29.712 263.215 30.408 264.181 30.408C264.664 30.408 264.905 30.408 265.388 30.168V32.064C264.905 32.304 264.181 32.352 263.456 32.352C262.49 32.352 261.524 32.04 261.041 31.44C260.559 30.84 260.317 29.832 260.317 28.392V22.8H258.627V20.928H260.317V18.864L262.732 18.096ZM110.043 18.408C109.246 18.408 108.57 18.408 107.991 18.648V30.384H109.705C111.637 30.384 113.134 29.832 114.197 28.776C115.259 27.696 115.79 26.136 115.79 24.096C115.79 22.248 115.283 20.856 114.317 19.872C113.351 18.888 111.927 18.408 110.043 18.408ZM287.846 20.664C289.536 20.664 290.744 21.288 291.71 22.488C292.434 23.448 292.676 24.648 292.676 26.04V27.192H284.948C284.948 28.296 285.431 29.16 286.156 29.736C286.639 30.264 287.604 30.528 288.57 30.528C289.778 30.528 290.744 30.288 291.71 30L291.951 31.752C290.985 32.208 289.778 32.448 288.329 32.448C286.397 32.448 285.19 31.944 283.982 30.912C283.016 29.88 282.533 28.488 282.533 26.736C282.533 25.032 283.016 23.616 283.982 22.488C284.948 21.288 286.156 20.664 287.846 20.664ZM160.73 20.664C161.793 20.664 162.662 21.024 163.362 21.696C164.256 22.536 164.69 23.784 164.69 25.44V32.232H162.155V25.752C162.155 23.736 161.382 22.752 159.861 22.752C159.112 22.752 158.508 23.016 158.025 23.568C157.567 24.12 157.325 24.768 157.325 25.512V32.232H154.79V24.144V20.904H157.011L157.253 22.68C157.567 22.128 158.001 21.672 158.581 21.312C159.257 20.88 160.03 20.664 160.875 20.664H160.73ZM244.379 20.664C245.587 20.664 246.311 21.024 247.036 21.696C248.001 22.536 248.484 23.784 248.484 25.44V32.232H245.828V25.752C245.828 23.736 245.104 22.752 243.655 22.752C242.93 22.752 242.206 23.016 241.723 23.568C241.24 24.12 240.999 24.768 240.999 25.512V32.232H238.584V24.144C238.584 23.16 238.584 22.08 238.342 20.904H240.757V22.68C241.24 22.128 241.723 21.672 242.206 21.312C242.93 20.88 243.655 20.664 244.379 20.664ZM127.116 20.664C128.782 20.664 130.134 21.216 131.149 22.32C132.115 23.4 132.597 24.768 132.597 26.472C132.597 28.2 132.09 29.64 131.1 30.744C130.038 31.896 128.661 32.472 126.923 32.472C125.256 32.472 123.928 31.92 122.938 30.816C121.948 29.712 121.441 28.32 121.441 26.664C121.441 24.912 121.948 23.472 122.987 22.344C124.001 21.24 125.377 20.664 127.116 20.664ZM181.087 20.664C182.753 20.664 184.081 21.216 185.12 22.32C186.086 23.4 186.569 24.768 186.569 26.472C186.569 28.2 186.061 29.64 185.071 30.744C184.009 31.896 182.632 32.472 180.894 32.472C179.228 32.472 177.899 31.92 176.909 30.816C175.919 29.712 175.412 28.32 175.412 26.664C175.412 24.912 175.919 23.472 176.958 22.344C177.972 21.24 179.348 20.664 181.087 20.664ZM194.175 20.664C197.145 20.664 198.643 22.224 198.643 25.344V29.52C198.643 30.648 198.643 31.56 198.884 32.208H196.614L196.373 30.912C195.6 31.944 194.489 32.472 193.04 32.472C191.978 32.472 191.108 32.136 190.456 31.44C189.853 30.84 189.563 30.048 189.563 29.136C189.563 27.768 190.143 26.712 191.302 25.968C192.485 25.248 194.103 24.888 196.228 24.912V24.672C196.228 23.184 195.431 22.44 193.861 22.44C192.726 22.44 191.736 22.728 190.891 23.28L190.36 21.624C191.422 20.976 192.726 20.64 194.272 20.64L194.175 20.664ZM229.407 20.664C231.098 20.664 232.305 21.216 233.271 22.32C234.237 23.4 234.72 24.768 234.72 26.472C234.72 28.2 234.237 29.64 233.271 30.744C232.305 31.896 230.856 32.472 229.166 32.472C227.476 32.472 226.268 31.92 225.061 30.816C224.095 29.712 223.612 28.32 223.612 26.664C223.612 24.912 224.095 23.472 225.302 22.344C226.268 21.24 227.717 20.664 229.407 20.664ZM135.085 20.904H137.669L138.948 26.28C139.262 27.552 139.528 28.776 139.745 29.904C139.987 28.968 140.228 27.768 140.663 26.304L142.281 20.904H144.358L145.903 26.184C146.265 27.48 146.579 28.728 146.797 29.928C147.038 28.752 147.231 27.504 147.569 26.184L148.97 20.904H151.457L147.883 32.208H145.565L144.092 27.312C143.706 26.088 143.416 24.864 143.174 23.64C142.933 24.888 142.643 26.112 142.257 27.312L140.687 32.208H138.345L135.085 20.904ZM287.846 22.392C286.88 22.392 286.156 22.728 285.673 23.424C285.431 23.952 285.19 24.624 284.948 25.368H290.261C290.261 24.624 290.019 23.976 289.778 23.448C289.295 22.752 288.57 22.392 287.846 22.392ZM127.019 22.632C126.005 22.632 125.232 23.088 124.701 23.976C124.242 24.72 124.025 25.632 124.025 26.712C124.025 27.768 124.266 28.656 124.701 29.4C125.256 30.312 126.005 30.744 126.995 30.744C127.961 30.744 128.734 30.288 129.265 29.376C129.748 28.608 129.965 27.72 129.965 26.664C129.965 25.632 129.724 24.72 129.289 23.976C128.758 23.088 128.009 22.632 127.019 22.632ZM180.99 22.632C179.976 22.632 179.203 23.088 178.672 23.976C178.213 24.72 177.996 25.632 177.996 26.712C177.996 27.768 178.237 28.656 178.672 29.4C179.228 30.312 179.976 30.744 180.966 30.744C181.932 30.744 182.681 30.288 183.236 29.376C183.695 28.608 183.936 27.72 183.936 26.664C183.936 25.632 183.695 24.72 183.26 23.976C182.729 23.088 181.98 22.632 180.99 22.632ZM229.166 22.632C228.2 22.632 227.476 23.088 226.993 23.976C226.51 24.72 226.268 25.632 226.268 26.712C226.268 27.768 226.51 28.656 226.993 29.4C227.476 30.312 228.2 30.744 229.166 30.744C230.132 30.744 230.856 30.288 231.581 29.376C232.064 28.608 232.305 27.72 232.305 26.664C232.305 25.632 232.064 24.72 231.581 23.976C231.098 23.088 230.132 22.632 229.166 22.632ZM207.891 22.872C206.95 22.872 206.201 23.232 205.67 23.976C205.114 24.72 204.849 25.68 204.849 26.856C204.849 27.96 205.114 28.872 205.621 29.568C206.177 30.312 206.925 30.696 207.843 30.696C208.664 30.696 209.34 30.384 209.847 29.76C210.33 29.184 210.572 28.488 210.572 27.696V25.8V25.008C210.33 24.408 210.113 23.904 209.654 23.472C209.187 23.0678 208.583 22.8536 207.964 22.872H207.891ZM196.18 26.832C193.403 26.832 192.002 27.528 192.002 29.112C192.002 29.688 192.243 30.144 192.485 30.432C192.799 30.72 193.233 30.864 193.716 30.864C194.272 30.864 194.803 30.624 195.262 30.36C195.745 30 196.035 29.544 196.131 29.016V28.56L196.18 26.832ZM66.3591 29.928H68.1219C70.1262 29.928 75.7769 30.72 79.4233 36C79.1335 36.24 72.6859 39.936 72.7584 47.664C72.7584 56.952 80.9204 60 81.017 60.048C81.017 60.288 79.7372 64.464 76.7187 68.736C74.1831 72.504 71.5268 76.176 67.325 76.248C63.2199 76.248 61.8434 73.848 57.1587 73.848C52.4256 73.848 50.9526 76.176 47.0406 76.344C43.032 76.584 39.9652 72.336 37.333 68.592C32.0929 60.984 28.0119 47.16 33.4935 37.728C36.1498 33.12 40.9794 30.144 46.1471 30.072C50.1557 30.072 53.8745 32.76 56.3618 32.76C58.4627 32.76 62.2539 30.216 66.3591 29.904V29.928ZM204.076 43.2C206.998 43.2 209.413 43.704 211.369 44.712L210.065 48.888C208.254 47.904 206.201 47.424 203.931 47.424C202.12 47.424 200.695 47.88 199.681 48.744C198.812 49.536 198.401 50.496 198.401 51.648C198.401 52.896 198.884 53.952 199.874 54.768C200.719 55.536 202.289 56.352 204.535 57.24C207.312 58.344 209.34 59.64 210.644 61.128C211.948 62.592 212.504 64.44 212.504 66.648C212.504 69.36 211.659 71.568 209.751 73.296C207.65 75.144 204.728 76.08 200.985 76.08C197.532 76.08 194.755 75.408 192.654 74.088L193.861 69.84C196.107 71.184 198.594 71.88 201.299 71.88C203.231 71.88 204.752 71.424 205.839 70.56C206.901 69.696 207.457 68.52 207.457 67.08C207.457 65.784 206.998 64.68 206.104 63.792C205.235 62.904 203.738 62.088 201.685 61.344C196.059 59.256 193.233 56.184 193.233 52.176C193.233 49.536 194.224 47.4 196.204 45.72C198.16 44.04 200.792 43.2 204.076 43.2ZM112.748 43.68H119.147L129.531 75.6H124.049L121.055 66.24H110.623L107.749 75.6H102.412L112.748 43.68ZM223.853 46.848V52.584H229.649V56.424H223.853V67.608C223.853 70.44 225.061 71.856 226.993 71.856C227.959 71.856 228.683 71.856 229.166 71.616L229.407 75.504C228.441 75.864 226.993 76.056 225.302 76.056C223.37 76.056 221.68 75.432 220.714 74.208C219.507 72.984 218.782 70.92 218.782 67.992V56.4H215.401V52.56H218.782V48.336L223.853 46.848ZM115.718 47.928C115.404 49.296 114.897 51.312 114.197 53.952L111.516 62.304H120.161L117.432 53.952C117.143 53.112 116.611 51.096 115.815 47.928H115.718ZM285.431 52.056C288.812 52.056 291.227 53.304 292.917 55.752C294.366 57.72 295.09 60.144 295.09 63C295.09 63.912 294.849 64.704 294.849 65.328H279.394C279.394 67.608 280.119 69.336 281.567 70.536C282.775 71.616 284.465 72.144 286.638 72.144C288.812 72.144 290.985 71.784 292.917 71.064L293.641 74.616C291.468 75.576 288.812 76.032 285.914 76.032C282.292 76.032 279.394 74.976 277.462 72.888C275.289 70.776 274.323 67.968 274.323 64.44C274.323 60.96 275.289 58.056 277.221 55.752C279.153 53.304 282.05 52.056 285.431 52.056ZM146.555 52.056C149.308 52.056 151.578 53.136 153.413 55.272C155.224 57.432 156.142 60.264 156.142 63.768C156.142 67.68 155.079 70.776 152.954 73.056C151.047 75.072 148.68 76.08 145.855 76.08C142.788 76.08 140.591 75 139.262 72.816V84.936H134.022V60.168C134.022 57.696 134.022 55.176 133.781 52.584H138.321L138.586 56.232C140.301 53.472 142.909 52.104 146.386 52.104L146.555 52.056ZM173.215 52.056C175.943 52.056 178.237 53.136 180.049 55.272C181.884 57.432 182.801 60.264 182.801 63.768C182.801 67.68 181.739 70.776 179.59 73.056C177.706 75.072 175.316 76.08 172.49 76.08C169.448 76.08 167.25 75 165.922 72.816V84.936H160.682V60.168C160.682 57.696 160.682 55.176 160.44 52.584H164.956L165.246 56.232C166.96 53.472 169.568 52.104 173.07 52.104L173.215 52.056ZM270.701 52.056H271.908V56.928C271.425 56.928 270.942 56.688 270.459 56.688C268.527 56.688 267.078 57.384 266.113 58.728C265.388 59.928 264.905 61.464 264.905 63.288V75.36H259.593L259.834 59.592C259.834 56.928 259.593 54.528 259.593 52.344H263.939L264.181 56.736H264.422C264.905 55.224 265.871 54.024 267.078 53.088C268.044 52.272 269.252 51.864 270.701 51.864V52.056ZM244.138 52.056C247.519 52.056 250.175 53.184 252.348 55.416C254.28 57.6 255.246 60.408 255.246 63.864C255.246 67.392 254.28 70.296 252.107 72.576C249.933 74.904 247.277 76.08 243.655 76.08C240.274 76.08 237.618 74.952 235.444 72.72C233.513 70.464 232.547 67.632 232.547 64.224C232.547 60.672 233.513 57.744 235.686 55.464C237.618 53.184 240.516 52.056 244.138 52.056ZM284.948 55.56C283.258 55.56 281.809 56.256 280.843 57.648C280.118 58.752 279.394 60.072 279.394 61.632H290.019C290.019 60.096 289.778 58.8 289.053 57.696C288.087 56.28 286.88 55.56 284.948 55.56ZM243.896 55.8C241.723 55.8 240.274 56.712 239.067 58.56C238.342 60.072 237.859 61.92 237.859 64.104C237.859 66.24 238.342 68.064 239.067 69.576C240.274 71.424 241.723 72.336 243.896 72.336C245.828 72.336 247.277 71.4 248.484 69.528C249.45 67.992 249.933 66.144 249.933 64.008C249.933 61.896 249.45 60.072 248.484 58.56C247.519 56.712 245.828 55.8 243.896 55.8ZM144.889 56.136C143.633 56.136 142.474 56.544 141.436 57.384C140.397 58.224 139.721 59.328 139.407 60.672C139.166 61.32 139.166 61.824 139.166 62.232V66.072C139.166 67.752 139.697 69.168 140.711 70.32C141.75 71.472 143.102 72.048 144.744 72.048C146.7 72.048 148.197 71.304 149.284 69.816C150.371 68.328 150.902 66.384 150.902 63.936C150.902 61.704 150.395 59.856 149.38 58.392C148.27 56.928 146.772 56.184 144.889 56.184V56.136ZM171.548 56.136C170.269 56.136 169.134 56.544 168.095 57.384C167.057 58.224 166.381 59.328 166.067 60.672C165.825 61.32 165.825 61.824 165.825 62.232V66.072C165.825 67.752 166.332 69.168 167.371 70.32C168.409 71.472 169.737 72.048 171.404 72.048C173.335 72.048 174.857 71.304 175.943 69.816C177.006 68.328 177.561 66.384 177.561 63.936C177.561 61.704 177.054 59.856 176.016 58.392C174.905 56.88 173.432 56.136 171.548 56.136Z" fill="black"/>
</svg>
