<svg width="101" height="66" viewBox="0 0 101 66" fill="none" xmlns="http://www.w3.org/2000/svg">
<path d="M100.5 22.4671H95.298L92.2874 36.9219L91.8652 38.9055C91.5748 38.9957 91.2844 39.0856 90.9938 39.1461C90.4656 39.2661 89.9112 39.3262 89.3306 39.3262C88.6702 39.3262 88.1424 39.2062 87.7462 38.9957C87.3762 38.7853 87.0858 38.4851 86.9274 38.064C86.7688 37.6732 86.716 37.1925 86.7424 36.6517C86.7688 36.1109 86.8744 35.5095 87.0064 34.9091L88.5908 27.3956L89.6204 22.4072H84.3128L81.91 33.9468C81.6194 35.3288 81.461 36.6515 81.4082 37.9138C81.3552 39.1757 81.5402 40.2578 81.91 41.2495C82.2798 42.2111 82.9396 42.9623 83.8376 43.5331C84.7354 44.1042 86.0294 44.3742 87.6668 44.3742C88.8024 44.3742 89.8056 44.2547 90.6508 44.0439C90.6772 44.0439 90.73 44.0141 90.7564 44.0141C90.5188 45.2159 90.0434 46.1773 89.3038 46.9291C88.538 47.6805 87.4288 48.071 85.95 48.071C85.3162 48.071 84.7354 48.041 84.2072 47.9513L83.1774 52.8498C83.8642 52.9399 84.63 53 85.4748 53C87.0592 53 88.4322 52.7897 89.6204 52.3986C90.8088 51.9778 91.8126 51.3771 92.6836 50.5354C93.5286 49.6939 94.2416 48.6421 94.8224 47.4103C95.4032 46.1482 95.852 44.6751 96.1954 42.9322L99.7866 25.7427L100.5 22.4671ZM78.715 34.8181C78.398 36.3208 78.2924 37.8533 78.4244 39.356C78.5564 40.8885 79.0846 43.2024 79.5864 44.3744H74.5692C73.962 43.2029 73.9886 42.6318 73.8566 42.2712C73.1962 42.8724 72.4836 43.3831 71.6914 43.7739C70.8992 44.1648 70.0276 44.3751 69.0242 44.3751C67.8622 44.3751 66.859 44.1345 66.0404 43.6838C65.2218 43.2334 64.5352 42.6022 64.007 41.8206C63.4786 41.0389 63.1094 40.1374 62.8712 39.0856C62.6336 38.0338 62.528 36.9219 62.528 35.7201C62.528 33.8864 62.8186 32.1739 63.3734 30.5512C63.954 28.9283 64.7462 27.5156 65.75 26.3138C66.7534 25.1117 69.2092 22.4373 73.2228 22.4373H81.2768L78.715 34.8181ZM75.0446 27.4555C72.6154 27.4555 72.1662 27.4555 71.1632 28.0268C70.4502 28.4474 69.869 29.0786 69.3674 29.7997C68.8658 30.5207 68.4432 31.3622 68.1528 32.3241C67.8624 33.2858 67.7038 34.2773 67.7038 35.2992C67.7038 36.5613 67.889 37.5829 68.2584 38.3342C68.6278 39.0856 69.3146 39.4461 70.318 39.4461C70.8464 39.4461 71.3476 39.3262 71.7706 39.0856C72.1928 38.845 72.668 38.4549 73.1436 37.8838C73.1966 37.2228 73.2756 36.5313 73.3812 35.8107C73.4866 35.0889 73.6188 34.3979 73.7246 33.7968L75.0446 27.4555ZM61.1022 31.1519C61.1022 33.1053 60.8116 34.8781 60.257 36.501C59.7026 38.1237 58.9104 39.5062 57.9068 40.6784C56.9032 41.8506 55.7152 42.752 54.3156 43.4134C52.9162 44.0739 51.411 44.4047 49.7738 44.4047C48.9816 44.4047 48.1894 44.3145 47.3706 44.1643L45.7866 51.4067H40.5842L46.6312 22.4967H53.576C54.8968 22.4967 56.0318 22.7373 56.956 23.1875C57.9066 23.6382 58.6724 24.2696 59.3062 25.0512C59.9136 25.8326 60.3622 26.764 60.6526 27.8158C60.9702 28.8378 61.1022 29.9499 61.1022 31.1519ZM48.3478 39.356C48.7436 39.4759 49.2456 39.5062 49.8266 39.5062C50.7508 39.5062 51.5696 39.3257 52.335 38.9349C53.0742 38.5443 53.7346 38.0033 54.2626 37.3125C54.791 36.6212 55.1868 35.7797 55.5038 34.8181C55.7942 33.8559 55.9528 32.7743 55.9528 31.6026C55.9528 30.4602 55.7414 29.4687 55.2926 28.6871C54.8436 27.8761 54.0782 27.4552 52.9692 27.4552H50.9092L48.3478 39.356ZM37.4158 39.356C36.7554 39.356 36.2278 39.2358 35.8314 39.0255C35.4616 38.8152 35.171 38.5147 35.0128 38.0936C34.8542 37.7031 34.8014 37.2223 34.828 36.6813C34.8542 36.1403 34.9598 35.5391 35.0918 34.9382L36.676 27.4254H42.591L43.6738 22.4368H37.7322L39.1052 16.1258L33.5598 17.1171L30.0478 34.0064C29.7572 35.3885 29.5988 36.7113 29.546 37.973C29.493 39.2351 29.678 40.3176 30.0478 41.3089C30.4174 42.2706 31.0776 43.0217 31.9754 43.5928C32.8732 44.1638 34.1672 44.434 35.8044 44.434C36.94 44.434 37.9432 44.3141 38.7884 44.1035C38.8676 44.073 38.9996 44.0432 39.0786 44.0134L40.1614 38.8743C39.7916 39.0246 39.422 39.1152 39.0786 39.1746C38.5512 39.2957 37.9964 39.356 37.4158 39.356ZM24.1864 22.4671L19.5916 44.4044H24.7936L29.3618 22.4671H24.1864ZM29.9164 19.9424L30.7086 16.1258H25.5066L24.7144 19.9424H29.9164ZM12.6732 22.4967C13.7822 22.4967 14.7592 22.7373 15.5778 23.1875C16.3964 23.6382 17.0566 24.2393 17.611 25.0209C18.1392 25.8025 18.5352 26.7041 18.7992 27.7259C19.0632 28.7472 19.1952 29.8595 19.1952 31.0615C19.1952 32.8947 18.9048 34.6077 18.2974 36.2604C17.69 37.8833 16.8978 39.3257 15.8682 40.5275C14.8384 41.7295 13.6236 42.6916 12.2242 43.3827C10.8246 44.0737 9.3194 44.4342 7.6824 44.4342C7.471 44.4342 7.1014 44.4342 6.5734 44.4044C6.0452 44.4044 5.438 44.3441 4.7778 44.2239C4.0912 44.104 3.3782 43.9535 2.6388 43.7434C1.90094 43.5392 1.18405 43.2471 0.5 42.8719L6.5468 13.9621L11.9602 13L9.8212 23.2474C10.2964 23.0072 10.719 22.8267 11.1944 22.7068C11.6432 22.557 12.145 22.4967 12.6732 22.4967ZM8.1312 39.5062C8.9498 39.5062 9.7156 39.2957 10.4286 38.8152C11.1511 38.3594 11.7881 37.7468 12.3034 37.012C12.8316 36.2604 13.254 35.3889 13.5446 34.4571C13.835 33.4954 13.9934 32.5041 13.9934 31.4824C13.9934 30.22 13.8086 29.2288 13.4388 28.5073C13.0692 27.786 12.3034 27.4555 11.3 27.4555C10.983 27.4555 10.6398 27.4857 10.1116 27.636C9.5834 27.7559 9.1346 28.0568 8.7122 28.4772L6.4412 39.386C7.1278 39.5062 7.339 39.536 7.524 39.536C7.656 39.5062 7.8672 39.5062 8.1312 39.5062Z" fill="#002855"/>
</svg>
