<svg width="69" height="69" viewBox="0 0 69 69" fill="none" xmlns="http://www.w3.org/2000/svg">
<g clip-path="url(#clip0_412_7838)">
<path d="M67.9647 42.8459C63.3568 61.3282 44.6362 72.5752 26.1518 67.9673C7.67593 63.3594 -3.57215 44.6388 1.03683 26.1576C5.64258 7.67317 24.3621 -3.57599 42.8411 1.03192C61.3245 5.63983 72.5715 24.3625 67.9636 42.8459H67.9647Z" fill="#F7931A"/>
<path d="M49.7116 29.5847C50.3972 24.9941 46.902 22.5262 42.1226 20.88L43.673 14.6613L39.8866 13.718L38.3772 19.7727C37.3832 19.5247 36.3611 19.2908 35.3455 19.059L36.8657 12.9644L33.0826 12.021L31.5311 18.2375C30.7075 18.0499 29.8989 17.8644 29.114 17.6693L29.1183 17.6499L23.898 16.3464L22.891 20.3894C22.891 20.3894 25.6996 21.033 25.6403 21.0729C27.1734 21.4557 27.4515 22.4702 27.4041 23.2745L25.6381 30.3588C25.7438 30.3858 25.8807 30.4246 26.0316 30.485L25.6327 30.3858L23.1563 40.3099C22.9687 40.7757 22.4932 41.4743 21.4216 41.2091C21.4593 41.2641 18.6702 40.5223 18.6702 40.5223L16.791 44.8564L21.718 46.0844C22.6345 46.314 23.5325 46.5544 24.4155 46.7808L22.849 53.0717L26.63 54.015L28.1825 47.7921C29.2143 48.0724 30.2169 48.3312 31.198 48.5748L29.652 54.7687L33.4373 55.712L35.0038 49.4341C41.4585 50.6556 46.3133 50.1629 48.3542 44.3259C50.0005 39.6253 48.2733 36.9138 44.8772 35.1446C47.3505 34.5721 49.2135 32.9452 49.7105 29.5847H49.7116ZM41.0618 41.7126C39.8909 46.4132 31.9775 43.8731 29.4105 43.2349L31.4891 34.902C34.055 35.5425 42.2822 36.8103 41.0628 41.7126H41.0618ZM42.2315 29.5168C41.1642 33.7927 34.5768 31.6202 32.4389 31.0876L34.3235 23.53C36.4614 24.0626 43.3442 25.0566 42.2315 29.5168V29.5168Z" fill="white"/>
</g>
<defs>
<clipPath id="clip0_412_7838">
<rect width="69" height="69" fill="white"/>
</clipPath>
</defs>
</svg>
