<svg width="69" height="69" viewBox="0 0 69 69" fill="none" xmlns="http://www.w3.org/2000/svg">
<g clip-path="url(#clip0_412_7844)">
<path d="M67.9647 42.8459C63.3568 61.3282 44.6362 72.5752 26.1518 67.9673C7.67593 63.3594 -3.57215 44.6388 1.03683 26.1576C5.64258 7.67317 24.3621 -3.57599 42.8411 1.03192C61.3245 5.63983 72.5715 24.3625 67.9636 42.8459H67.9647Z" fill="#8FC258"/>
<path d="M43.1177 20.032C40.6922 16.0746 36.4283 16.4308 31.7089 18.2418L28.8993 12.4815L25.3924 14.1927L28.1281 19.8011C27.2072 20.2501 26.2739 20.7278 25.3469 21.2031L22.5939 15.5572L19.0894 17.2663L21.8968 23.0256C21.1453 23.4114 20.4067 23.7891 19.68 24.1441L19.6708 24.1264L14.834 26.4835L16.6614 30.2278C16.6614 30.2278 19.2265 28.9156 19.2068 28.9843C20.6272 28.292 21.4924 28.8904 21.973 29.537L25.174 36.0991C25.2722 36.0518 25.4021 35.9935 25.5565 35.9428L25.1872 36.1232L29.6692 45.3173C29.8249 45.7947 29.9097 46.6355 28.9183 47.1212C28.9826 47.1391 26.3692 48.3636 26.3692 48.3636L27.7155 52.8916L32.2792 50.6653C33.1288 50.2522 33.9713 49.8591 34.7933 49.4649L37.6369 55.2909L41.1397 53.5832L38.329 47.8182C39.2995 47.3698 40.2339 46.9235 41.1421 46.4795L43.9391 52.218L47.4452 50.5075L44.6098 44.6914C50.3396 41.4781 53.7419 37.9801 51.5534 32.1969C49.793 27.5378 46.727 26.5708 42.9883 27.3985C44.5149 25.3702 44.8963 22.9264 43.1169 20.0327L43.1177 20.032ZM44.2872 34.8824C46.4118 39.2359 38.717 42.3768 36.3403 43.5379L32.5764 35.8184C34.9537 34.6597 42.071 30.3426 44.288 34.8817L44.2872 34.8824ZM37.344 24.788C39.2749 28.7496 32.8323 31.3197 30.8522 32.2859L27.4379 25.285C29.4179 24.3188 35.3294 20.6561 37.344 24.788V24.788Z" fill="white"/>
</g>
<defs>
<clipPath id="clip0_412_7844">
<rect width="69" height="69" fill="white"/>
</clipPath>
</defs>
</svg>
