<svg width="69" height="69" viewBox="0 0 69 69" fill="none" xmlns="http://www.w3.org/2000/svg">
<path d="M34.5 69C53.5538 69 69 53.5538 69 34.5C69 15.4462 53.5538 0 34.5 0C15.4462 0 0 15.4462 0 34.5C0 53.5538 15.4462 69 34.5 69Z" fill="#2D598A"/>
<path d="M36.4409 48.9577C33.5946 48.9577 31.0395 48.3561 28.7754 47.1529C26.5113 45.9497 24.7324 44.2743 23.4387 42.1266C22.1449 39.979 21.498 37.5468 21.498 34.8299C21.498 32.113 22.1449 29.6808 23.4387 27.5331C24.7324 25.3855 26.5113 23.7101 28.7754 22.5069C31.0395 21.3037 33.5946 20.7021 36.4409 20.7021C38.9249 20.7021 41.163 21.142 43.1554 22.0218C45.1478 22.9015 46.8038 24.1694 48.1234 25.8254L43.233 30.25C41.4735 28.1283 39.3389 27.0674 36.829 27.0674C35.3541 27.0674 34.041 27.3908 32.8895 28.0377C31.7381 28.6846 30.8454 29.5967 30.2115 30.774C29.5775 31.9513 29.2605 33.3033 29.2605 34.8299C29.2605 36.3565 29.5775 37.7085 30.2115 38.8858C30.8454 40.0631 31.7381 40.9752 32.8895 41.6221C34.041 42.269 35.3541 42.5924 36.829 42.5924C39.3389 42.5924 41.4735 41.5315 43.233 39.4098L48.1234 43.8344C46.8038 45.4904 45.1478 46.7583 43.1554 47.638C41.163 48.5178 38.9249 48.9577 36.4409 48.9577Z" fill="white"/>
</svg>
