<svg width="69" height="69" viewBox="0 0 69 69" fill="none" xmlns="http://www.w3.org/2000/svg">
<path d="M34.5 69C53.5538 69 69 53.5538 69 34.5C69 15.4462 53.5538 0 34.5 0C15.4462 0 0 15.4462 0 34.5C0 53.5538 15.4462 69 34.5 69Z" fill="#627EEA"/>
<path d="M35.5742 8.625V27.7509L51.7396 34.9744L35.5742 8.625Z" fill="white" fill-opacity="0.602"/>
<path d="M35.5738 8.625L19.4062 34.9744L35.5738 27.7509V8.625Z" fill="white"/>
<path d="M35.5742 47.3684V60.3641L51.7504 37.9844L35.5742 47.3684Z" fill="white" fill-opacity="0.602"/>
<path d="M35.5738 60.3641V47.3662L19.4062 37.9844L35.5738 60.3641Z" fill="white"/>
<path d="M35.5742 44.3607L51.7396 34.9745L35.5742 27.7554V44.3607Z" fill="white" fill-opacity="0.2"/>
<path d="M19.4062 34.9745L35.5738 44.3607V27.7554L19.4062 34.9745Z" fill="white" fill-opacity="0.602"/>
</svg>
