<svg width="23" height="24" viewBox="0 0 23 24" fill="none" xmlns="http://www.w3.org/2000/svg">
<path d="M3.97545 18.3636C3.97543 18.3636 3.97539 18.3636 3.97537 18.3636C3.59283 18.7629 3.57905 19.4409 3.97697 19.8442C4.37333 20.246 5.03155 20.2483 5.42026 19.8427L11.5014 13.4971L17.5825 19.8427C17.9683 20.2453 18.6387 20.2601 19.0288 19.8411C19.4104 19.4311 19.4125 18.7655 19.0273 18.3636L12.9373 11.9988L19.0273 5.644C19.4096 5.24506 19.4237 4.56763 19.0266 4.16417C18.6301 3.75127 17.9706 3.74891 17.5818 4.16566L11.5014 10.5104L5.42099 4.16566C5.03494 3.75193 4.36339 3.73714 3.97325 4.16726C3.59231 4.57727 3.59048 5.24231 3.97545 5.644L10.0655 11.9988L3.97545 18.3636Z" fill="#6B7A99" stroke="#6B7A99" stroke-width="0.3"/>
</svg>
