<svg width="190" height="85" viewBox="0 0 190 85" fill="none" xmlns="http://www.w3.org/2000/svg">
<path d="M33.0708 38.9676V33.1184H52.4993C52.6977 34.1504 52.8151 35.3741 52.8151 36.7038C52.8151 41.0887 51.6251 46.5178 47.7879 50.3846C44.056 54.3004 39.292 56.3888 32.9696 56.3888C21.2598 56.3888 11.416 46.7829 11.416 34.9825C11.416 23.1821 21.2598 13.5762 32.9696 13.5762C39.4458 13.5762 44.056 16.1337 47.5289 19.4743L43.4367 23.5981C40.9515 21.2487 37.5839 19.4213 32.9696 19.4213C24.421 19.4213 17.7384 26.3637 17.7384 34.9825C17.7384 43.6013 24.421 50.5437 32.9696 50.5437C38.5148 50.5437 41.672 48.3003 43.6958 46.2608C45.3432 44.6006 46.4279 42.2226 46.8489 38.9676H33.0708Z" fill="#4285F4"/>
<path d="M82.42 42.6021C82.42 50.5397 76.2555 56.3849 68.6905 56.3849C61.1255 56.3849 54.9609 50.5357 54.9609 42.6021C54.9609 34.6155 61.1255 28.8193 68.6905 28.8193C76.2555 28.8193 82.42 34.6155 82.42 42.6021V42.6021ZM76.4093 42.6021C76.4093 37.6421 72.8352 34.2484 68.6905 34.2484C64.5457 34.2484 60.9717 37.6421 60.9717 42.6021C60.9717 47.5091 64.5457 50.9558 68.6905 50.9558C72.8352 50.9599 76.4093 47.5132 76.4093 42.6021Z" fill="#EA4335"/>
<path d="M111.967 42.6021C111.967 50.5397 105.802 56.3849 98.2373 56.3849C90.6723 56.3849 84.5078 50.5357 84.5078 42.6021C84.5078 34.6155 90.6723 28.8193 98.2373 28.8193C105.802 28.8193 111.967 34.6155 111.967 42.6021V42.6021ZM105.956 42.6021C105.956 37.6421 102.382 34.2484 98.2373 34.2484C94.0926 34.2484 90.5185 37.6421 90.5185 42.6021C90.5185 47.5091 94.0926 50.9558 98.2373 50.9558C102.382 50.9599 105.956 47.5132 105.956 42.6021Z" fill="#FBBC05"/>
<path d="M140.334 29.647V54.4022C140.334 64.5832 134.376 68.7601 127.329 68.7601C120.699 68.7601 116.708 64.2692 115.206 60.6144L120.44 58.4199C121.371 60.6634 123.653 63.3269 127.329 63.3269C131.838 63.3269 134.635 60.5084 134.635 55.2343V53.2519H134.428C133.08 54.9243 130.49 56.3845 127.227 56.3845C120.387 56.3845 114.117 50.3803 114.117 42.6507C114.117 34.8722 120.387 28.8149 127.227 28.8149C130.49 28.8149 133.08 30.2752 134.428 31.8945H134.635V29.643H140.334V29.647ZM135.047 42.6548C135.047 37.7968 131.834 34.2481 127.741 34.2481C123.597 34.2481 120.124 37.7968 120.124 42.6548C120.124 47.4598 123.597 50.9555 127.741 50.9555C131.838 50.9595 135.047 47.4598 135.047 42.6548Z" fill="#4285F4"/>
<path d="M150.452 15.1709V55.5525H144.441V15.1709H150.452Z" fill="#34A853"/>
<path d="M173.256 47.1459L177.919 50.2785C176.417 52.5219 172.791 56.3888 166.521 56.3888C158.75 56.3888 152.945 50.3315 152.945 42.606C152.945 34.4073 158.798 28.8232 165.845 28.8232C172.945 28.8232 176.413 34.5134 177.555 37.593L178.178 39.1593L159.887 46.7828C161.287 49.5484 163.461 50.9597 166.517 50.9597C169.577 50.9597 171.702 49.4423 173.256 47.1459V47.1459ZM158.903 42.1859L171.131 37.0709C170.459 35.3496 168.436 34.1463 166.056 34.1463C162.996 34.1463 158.75 36.8588 158.903 42.1859V42.1859Z" fill="#EA4335"/>
</svg>
