<svg width="191" height="59" viewBox="0 0 191 59" fill="none" xmlns="http://www.w3.org/2000/svg">
<circle cx="32" cy="29.5" r="22" fill="#FE6B01"/>
<path d="M18.6021 39.4615C18.2332 39.4615 18.0488 39.0829 18.0488 38.3259C18.0488 37.9571 18.2138 37.3747 18.5438 36.5788C18.8738 35.7635 19.3106 34.8221 19.8541 33.7544C20.4171 32.6673 21.0479 31.5415 21.7468 30.3768C22.4456 29.1926 23.1638 28.0376 23.9015 26.9118C24.6391 25.7859 25.3477 24.7668 26.0271 23.8544C26.7065 22.9226 27.3179 22.185 27.8615 21.6415C28.405 21.0979 28.8224 20.8262 29.1135 20.8262C29.2494 20.8262 29.4338 20.8941 29.6668 21.03C29.8997 21.1659 30.1132 21.3212 30.3074 21.4959C30.5015 21.6706 30.5985 21.8259 30.5985 21.9618C30.5985 22.3112 30.55 22.6897 30.4529 23.0973C30.3753 23.4856 30.3074 23.8544 30.2491 24.2038C30.2103 24.3979 30.1327 24.8347 30.0162 25.5141C29.8997 26.1741 29.7832 26.9409 29.6668 27.8144C29.5697 28.6685 29.5212 29.4838 29.5212 30.2603C29.5212 30.9979 29.5988 31.6288 29.7541 32.1529C29.9094 32.6771 30.1909 32.9391 30.5985 32.9391C31.1227 32.9391 31.7632 32.6965 32.5203 32.2112C33.2774 31.7259 34.0829 31.1047 34.9371 30.3476C35.8106 29.5712 36.6744 28.7559 37.5285 27.9018C38.4021 27.0282 39.1979 26.2129 39.9162 25.4559C40.6538 24.6794 41.2653 24.0485 41.7506 23.5632C42.2553 23.0779 42.5562 22.8353 42.6532 22.8353C42.7115 22.8353 42.7406 22.8741 42.7406 22.9518C42.7406 23.1071 42.6727 23.3012 42.5368 23.5341C42.3038 23.9806 41.935 24.5435 41.4303 25.2229C40.945 25.8829 40.3724 26.6012 39.7124 27.3776C39.0524 28.1541 38.3438 28.9209 37.5868 29.6779C36.8491 30.435 36.1018 31.1241 35.3447 31.7453C34.5877 32.3665 33.8597 32.8712 33.1609 33.2594C32.4621 33.6282 31.8312 33.8126 31.2682 33.8126C30.3753 33.8126 29.6959 33.57 29.23 33.0847C28.7641 32.58 28.4438 31.9394 28.2691 31.1629C28.0944 30.3671 28.0071 29.5421 28.0071 28.6879C28.0071 27.6979 28.0556 26.8438 28.1527 26.1256C28.2497 25.3879 28.3662 24.5532 28.5021 23.6215C27.6285 24.5338 26.6871 25.6112 25.6777 26.8535C24.6877 28.0765 23.7268 29.3868 22.795 30.7844C21.8827 32.1821 21.0868 33.5894 20.4074 35.0065C19.7279 36.4041 19.2718 37.7338 19.0388 38.9956C19.0194 39.1121 18.9806 39.2188 18.9224 39.3159C18.8641 39.4129 18.7574 39.4615 18.6021 39.4615ZM39.3338 38.5297C38.9068 38.5297 38.6253 38.3259 38.4894 37.9182C38.3729 37.5106 38.3147 37.1418 38.3147 36.8118C38.3147 36.4429 38.4021 35.8897 38.5768 35.1521C38.7709 34.395 39.0232 33.5312 39.3338 32.5606C39.6444 31.59 39.9938 30.5806 40.3821 29.5323C40.7897 28.4647 41.2168 27.4262 41.6632 26.4168C42.1291 25.4073 42.5853 24.5047 43.0318 23.7088C43.4782 22.8935 43.9053 22.2432 44.3129 21.7579C44.7206 21.2726 45.0797 21.03 45.3903 21.03C45.5456 21.03 45.7882 21.1076 46.1182 21.2629C46.4482 21.4182 46.6132 21.6026 46.6132 21.8162C46.6132 21.8744 46.4385 22.1753 46.0891 22.7188C45.7397 23.2429 45.2835 23.9321 44.7206 24.7862C44.1771 25.6403 43.5947 26.5915 42.9735 27.6397C42.3524 28.6685 41.7603 29.7362 41.1974 30.8426C40.6538 31.9491 40.2074 33.0168 39.8579 34.0456C39.5085 35.055 39.3338 35.9576 39.3338 36.7535V36.9865C39.3338 37.1223 39.3532 37.2582 39.3921 37.3941C39.4309 37.5106 39.5182 37.5688 39.6541 37.5688C39.8871 37.5688 40.0035 37.6853 40.0035 37.9182C40.0035 38.0541 39.9453 38.19 39.8288 38.3259C39.7124 38.4618 39.5474 38.5297 39.3338 38.5297Z" fill="white"/>
<path fill-rule="evenodd" clip-rule="evenodd" d="M20.4079 35.0061C19.7285 36.4037 19.2723 37.7334 19.0394 38.9952C19.02 39.1117 18.9812 39.2184 18.9229 39.3155C18.8647 39.4125 18.7579 39.4611 18.6026 39.4611C18.2338 39.4611 18.0494 39.0825 18.0494 38.3255C18.0494 37.9567 18.2144 37.3743 18.5444 36.5784C18.8744 35.7631 19.3112 34.8217 19.8547 33.754C20.4176 32.6669 21.0485 31.5411 21.7473 30.3764C22.4462 29.1922 23.1644 28.0372 23.9021 26.9114C24.6397 25.7855 25.3482 24.7664 26.0276 23.854C26.7071 22.9222 27.3185 22.1846 27.8621 21.6411C28.4056 21.0975 28.8229 20.8258 29.1141 20.8258C29.25 20.8258 29.4344 20.8937 29.6673 21.0296C29.9003 21.1655 30.1138 21.3208 30.3079 21.4955C30.5021 21.6702 30.5991 21.8255 30.5991 21.9614C30.5991 22.3108 30.5506 22.6893 30.4535 23.0969C30.3759 23.4852 30.3079 23.854 30.2497 24.2034C30.2109 24.3975 30.1332 24.8343 30.0168 25.5137C29.9003 26.1737 29.7838 26.9405 29.6673 27.814C29.5703 28.6681 29.5218 29.4834 29.5218 30.2599C29.5218 30.9975 29.5994 31.6284 29.7547 32.1525C29.91 32.6767 30.1915 32.9387 30.5991 32.9387C31.1232 32.9387 31.7638 32.6961 32.5209 32.2108C33.2779 31.7255 34.0835 31.1043 34.9376 30.3472C35.8112 29.5708 36.675 28.7555 37.5291 27.9014C38.4026 27.0278 39.1985 26.2125 39.9168 25.4555C40.6544 24.679 41.2659 24.0481 41.7512 23.5628C41.773 23.5418 41.7945 23.5213 41.8156 23.5011C41.9005 23.4202 41.9793 23.3466 42.0518 23.2804C42.0585 23.2742 42.0652 23.2682 42.0718 23.2622C42.1017 23.2351 42.1304 23.2093 42.1581 23.1847C42.2694 23.0861 42.3632 23.0083 42.4395 22.9514C42.5436 22.8737 42.615 22.8349 42.6538 22.8349C42.7018 22.8349 42.73 22.8612 42.7385 22.9139C42.7403 22.9252 42.7412 22.9377 42.7412 22.9514C42.7412 23.053 42.7121 23.1713 42.6538 23.3063C42.6333 23.3539 42.6091 23.4036 42.5813 23.4554C42.5804 23.4569 42.5796 23.4585 42.5788 23.46C42.5761 23.465 42.5733 23.4701 42.5705 23.4751C42.56 23.4944 42.5489 23.5139 42.5373 23.5337C42.4763 23.6507 42.406 23.7756 42.3263 23.9086C42.1558 24.193 41.9427 24.514 41.6869 24.8716C41.6058 24.9849 41.5205 25.1019 41.4309 25.2225C40.9456 25.8825 40.3729 26.6008 39.7129 27.3772C39.0529 28.1537 38.3444 28.9205 37.5873 29.6775C36.8497 30.4346 36.1023 31.1237 35.3453 31.7449C34.5882 32.3661 33.8603 32.8708 33.1615 33.259C32.4626 33.6278 31.8318 33.8122 31.2688 33.8122C30.3759 33.8122 29.6965 33.5696 29.2306 33.0843C28.7647 32.5796 28.4444 31.939 28.2697 31.1625C28.095 30.3667 28.0076 29.5417 28.0076 28.6875C28.0076 27.6975 28.0562 26.8434 28.1532 26.1252C28.2097 25.6963 28.2726 25.2346 28.3422 24.7401C28.3923 24.3841 28.4458 24.0111 28.5026 23.6211C28.2505 23.8844 27.9928 24.1614 27.7294 24.4522C27.08 25.169 26.3963 25.9693 25.6782 26.8531C24.6882 28.0761 23.7273 29.3864 22.7956 30.784C21.8832 32.1817 21.0873 33.589 20.4079 35.0061ZM27.5695 25.6069C27.1229 26.1196 26.6601 26.6708 26.1808 27.2606C25.2049 28.4662 24.2565 29.7593 23.3357 31.1403C22.4386 32.5149 21.6574 33.8967 20.9914 35.2858L20.9899 35.289C20.3317 36.643 19.8973 37.9154 19.6766 39.1079C19.644 39.2986 19.5785 39.4806 19.4778 39.6484C19.261 40.0096 18.8907 40.1081 18.6026 40.1081C18.3937 40.1081 18.1827 40.0524 17.9952 39.9241C17.8126 39.7991 17.6889 39.6306 17.606 39.4606C17.449 39.1382 17.4023 38.7358 17.4023 38.3255C17.4023 37.8162 17.6158 37.129 17.9457 36.3331C18.2845 35.4962 18.7294 34.5381 19.2781 33.4604L19.2801 33.4564C19.8496 32.3568 20.4868 31.2198 21.1913 30.0454C21.8948 28.8535 22.6179 27.6906 23.3608 26.5568C24.1036 25.423 24.8189 24.3939 25.5067 23.4702C26.1964 22.5245 26.8292 21.7588 27.4045 21.1835C27.6929 20.8951 27.9688 20.6572 28.2296 20.4874C28.4772 20.3262 28.7825 20.1787 29.1141 20.1787C29.4309 20.1787 29.7413 20.3237 29.9934 20.4707C30.2633 20.6281 30.5128 20.8093 30.7408 21.0145C30.9582 21.2102 31.2462 21.5313 31.2462 21.9614C31.2462 22.3665 31.1905 22.7919 31.0858 23.235C31.0103 23.6131 30.9444 23.9713 30.888 24.3098L30.8862 24.3201L30.8842 24.3303C30.8475 24.5139 30.7714 24.9412 30.6545 25.623L30.654 25.6262C30.5398 26.2734 30.4249 27.0287 30.3096 27.8932C30.2154 28.7234 30.1688 29.5121 30.1688 30.2599C30.1688 30.9555 30.2424 31.521 30.3751 31.9687C30.433 32.1641 30.4955 32.2428 30.5232 32.2686C30.5351 32.2797 30.5424 32.283 30.547 32.2848C30.5523 32.2868 30.5675 32.2917 30.5991 32.2917C30.9393 32.2917 31.4529 32.1268 32.1717 31.666C32.894 31.203 33.6726 30.6038 34.5078 29.8636M27.5695 25.6069C27.5496 25.7546 27.5304 25.8989 27.5118 26.0396C27.4099 26.7946 27.3606 27.6787 27.3606 28.6875C27.3606 29.5861 27.4525 30.4577 27.6377 31.3013L27.6384 31.3046C27.8341 32.1741 28.2006 32.9225 28.7551 33.5232L28.7594 33.5278L28.7638 33.5324C29.3878 34.1824 30.2597 34.4593 31.2688 34.4593C31.9709 34.4593 32.707 34.2305 33.4635 33.8313L33.4696 33.828L33.4757 33.8246C34.2151 33.4139 34.975 32.8857 35.7557 32.2451C36.5317 31.6084 37.2957 30.9038 38.0479 30.1321C38.8155 29.3643 39.535 28.5857 40.206 27.7963C40.3179 27.6646 40.4275 27.5344 40.5346 27.4058C40.2754 28.0273 40.0233 28.6591 39.7781 29.3011L39.7759 29.3072C39.3846 30.3637 39.0319 31.3823 38.7181 32.363C38.4048 33.3422 38.1486 34.2186 37.9506 34.9909L37.9491 34.9967L37.9477 35.0025C37.7709 35.7491 37.6682 36.3633 37.6682 36.8114C37.6682 37.2157 37.7393 37.6457 37.8678 38.0956L37.8717 38.1091L37.8761 38.1224C37.9766 38.4239 38.1495 38.7021 38.4235 38.9005C38.6978 39.0991 39.0163 39.1764 39.3344 39.1764C39.6967 39.1764 40.0574 39.0538 40.3207 38.7466C40.5053 38.5311 40.6512 38.2515 40.6512 37.9178C40.6512 37.7016 40.5967 37.4206 40.3743 37.1982C40.254 37.0779 40.1165 37.0068 39.9815 36.9668V36.7531C39.9815 36.0492 40.1366 35.22 40.47 34.2568L40.4712 34.2533C40.8101 33.2553 41.2448 32.2148 41.7767 31.1315C42.3322 30.04 42.916 28.9875 43.528 27.9737L43.5308 27.9692C44.1481 26.9275 44.7259 25.9837 45.2643 25.1375C45.8257 24.2858 46.2802 23.5992 46.6281 23.0773L46.6311 23.0729L46.634 23.0683C46.8103 22.794 46.9476 22.5732 47.0424 22.41C47.0891 22.3295 47.1309 22.2538 47.1629 22.188C47.1786 22.1558 47.1971 22.1155 47.213 22.0721L47.2138 22.07C47.2234 22.0439 47.2609 21.9424 47.2609 21.8158C47.2609 21.2061 46.7801 20.8586 46.3943 20.6771C46.0643 20.5217 45.7048 20.3825 45.3909 20.3825C45.0647 20.3825 44.772 20.5094 44.5263 20.6754C44.2799 20.842 44.0444 21.0719 43.8181 21.3414C43.5789 21.6261 43.338 21.9574 43.0952 22.3331C42.9542 22.2268 42.7912 22.1878 42.6538 22.1878C42.5204 22.1878 42.4149 22.2261 42.3625 22.2475C42.3016 22.2725 42.2481 22.3022 42.2059 22.3279C42.1215 22.3794 42.0341 22.4447 41.9492 22.5132C41.7769 22.6522 41.5596 22.8493 41.3027 23.0964L41.2981 23.1008L41.2936 23.1053C40.8029 23.596 40.1872 24.2313 39.4476 25.0098C38.7339 25.7621 37.9418 26.5736 37.0716 27.4438C36.2261 28.2893 35.3715 29.0959 34.5078 29.8636M43.3789 23.1023C43.2647 23.293 43.1492 23.4951 43.0323 23.7084C43.0203 23.7299 43.0082 23.7515 42.9962 23.7731C42.9922 23.7802 42.9883 23.7873 42.9843 23.7944C42.7402 24.2331 42.4931 24.7036 42.2432 25.206C42.0518 25.5908 41.8587 25.9942 41.6638 26.4164C41.2173 27.4258 40.7903 28.4643 40.3826 29.5319C39.9944 30.5802 39.645 31.5896 39.3344 32.5602C39.0238 33.5308 38.7715 34.3946 38.5773 35.1517C38.4026 35.8893 38.3153 36.4425 38.3153 36.8114C38.3153 37.1414 38.3735 37.5102 38.49 37.9178C38.6259 38.3255 38.9073 38.5293 39.3344 38.5293C39.5479 38.5293 39.7129 38.4614 39.8294 38.3255C39.9459 38.1896 40.0041 38.0537 40.0041 37.9178C40.0041 37.6849 39.8876 37.5684 39.6547 37.5684C39.5188 37.5684 39.4315 37.5102 39.3926 37.3937C39.3538 37.2578 39.3344 37.1219 39.3344 36.9861V36.7531C39.3344 35.9572 39.5091 35.0546 39.8585 34.0452C40.2079 33.0164 40.6544 31.9487 41.1979 30.8422C41.7609 29.7358 42.3529 28.6681 42.9741 27.6393C43.5953 26.5911 44.1776 25.6399 44.7212 24.7858C45.2841 23.9317 45.7403 23.2425 46.0897 22.7184C46.4391 22.1749 46.6138 21.874 46.6138 21.8158C46.6138 21.6022 46.4488 21.4178 46.1188 21.2625C45.7888 21.1072 45.5462 21.0296 45.3909 21.0296C45.0803 21.0296 44.7212 21.2722 44.3135 21.7575C44.0125 22.1158 43.701 22.5641 43.3789 23.1023Z" fill="white"/>
<path d="M69.5552 38C68.0718 38 67.0879 38.0303 66.6035 38.0908V17.7773C66.8457 17.8379 67.3452 17.8682 68.1021 17.8682C68.869 17.8682 69.757 17.848 70.7661 17.8076V34.3672H73.8994C74.8076 34.3672 75.5342 34.3369 76.0791 34.2764C76.0085 36.6377 75.9731 37.8638 75.9731 37.9546V38.106C74.9842 38.0353 73.3242 38 70.9932 38H69.5552ZM89.6265 37.0615C88.1935 37.8385 86.8968 38.2271 85.7363 38.2271C84.5758 38.2271 83.5819 38.1211 82.7544 37.9092C81.9269 37.6872 81.2256 37.3643 80.6504 36.9404C79.4798 36.0827 78.8945 34.8415 78.8945 33.2168C78.8945 31.7637 79.611 30.5527 81.0439 29.584C82.598 28.5345 84.707 28.0098 87.3711 28.0098L87.9766 28.0249C88.0977 28.035 88.2339 28.0451 88.3853 28.0552C88.5366 28.0552 88.6729 28.0653 88.7939 28.0854C88.7132 26.4709 88.0169 25.5273 86.7051 25.2549C86.2712 25.1641 85.807 25.1187 85.3125 25.1187C84.8281 25.1187 84.3488 25.1641 83.8745 25.2549C83.4103 25.3356 82.9562 25.4466 82.5122 25.5879C81.5334 25.9007 80.832 26.259 80.4082 26.6626L80.3628 26.6323L79.9087 23.2871C81.6948 22.3486 83.6475 21.8794 85.7666 21.8794C89.0563 21.8794 91.1603 23.0651 92.0786 25.4365C92.3713 26.1934 92.5176 27.0461 92.5176 27.9946V33.4741C92.5176 34.6447 92.9313 35.4419 93.7588 35.8657L91.019 38.3784C90.4438 38.0757 89.9797 37.6367 89.6265 37.0615ZM88.8091 30.8101C88.5366 30.7596 88.2541 30.7344 87.9614 30.7344H87.356C85.1258 30.7344 83.708 31.2288 83.1025 32.2178C82.9209 32.5104 82.8301 32.8182 82.8301 33.1411C82.8301 33.464 82.8856 33.7516 82.9966 34.0039C83.1177 34.2461 83.3145 34.4479 83.5869 34.6094C84.1117 34.9121 84.8887 35.0635 85.918 35.0635C86.9574 35.0635 87.9261 34.8162 88.8242 34.3218C88.8141 34.2108 88.8091 34.0947 88.8091 33.9736V30.8101ZM101.236 36.0625C101.236 36.9505 101.277 37.5964 101.357 38H97.5581V22.1821H101.236V23.5293C102.568 22.4294 103.991 21.8794 105.505 21.8794C107.16 21.8794 108.482 22.4445 109.471 23.5747C110.46 24.6948 110.954 26.1732 110.954 28.0098V34.0342C110.954 35.7396 110.979 36.7638 111.03 37.1069C111.08 37.45 111.146 37.672 111.227 37.7729C111.317 37.8739 111.393 37.9647 111.454 38.0454L111.423 38.106C110.606 38.0353 110.011 38 109.637 38H108.578C108.255 38 107.821 38.0151 107.276 38.0454V29.7959C107.276 26.8392 106.378 25.3608 104.582 25.3608C103.25 25.3608 102.134 26.047 101.236 27.4194V36.0625ZM119.552 33.792C119.178 34.2865 118.992 34.68 118.992 34.9727C118.992 35.2552 119.037 35.4772 119.128 35.6387C119.219 35.79 119.416 35.9364 119.718 36.0776C120.384 36.3905 121.479 36.668 123.003 36.9102C124.527 37.1423 125.717 37.4349 126.575 37.7881C127.443 38.1413 128.144 38.5752 128.679 39.0898C129.678 40.0687 130.178 41.4562 130.178 43.2524C130.178 45.0487 129.547 46.4261 128.286 47.3848C127.024 48.3535 125.152 48.8379 122.67 48.8379C120.167 48.8379 118.149 48.293 116.615 47.2031C115.081 46.1133 114.294 44.6652 114.254 42.8589C114.193 40.7599 115.016 39.2412 116.721 38.3027C116.257 37.9193 115.944 37.4702 115.783 36.9556C115.631 36.4308 115.556 35.8354 115.556 35.1694C115.556 34.0493 116.045 33.1007 117.024 32.3237C115.884 31.244 115.313 29.9019 115.313 28.2974C115.313 26.5011 115.959 24.9976 117.251 23.7866C118.613 22.5151 120.379 21.8794 122.549 21.8794C123.689 21.8794 124.759 22.0913 125.758 22.5151C127.07 21.9601 128.033 21.4757 128.649 21.062C129.264 20.6382 129.658 20.3304 129.83 20.1387L129.92 20.1538C130.011 20.396 130.117 20.7391 130.238 21.1831L130.511 22.2729C130.753 23.1711 130.899 23.7866 130.95 24.1196C130.506 24.604 129.724 24.9471 128.604 25.1489C129.037 25.9865 129.254 26.8745 129.254 27.813C129.254 28.7515 129.093 29.6042 128.77 30.3711C128.447 31.1279 127.988 31.7939 127.393 32.3691C126.071 33.6104 124.385 34.231 122.337 34.231C121.338 34.231 120.41 34.0846 119.552 33.792ZM119.158 26.9805C119.017 27.3438 118.946 27.7121 118.946 28.0854C118.946 28.4588 119.022 28.8171 119.173 29.1602C119.335 29.5033 119.567 29.811 119.87 30.0835C120.546 30.689 121.429 30.9917 122.519 30.9917C123.346 30.9917 124.062 30.7142 124.668 30.1592C125.304 29.5537 125.622 28.8271 125.622 27.9795C125.622 27.1217 125.334 26.4305 124.759 25.9058C124.184 25.381 123.391 25.1187 122.382 25.1187C120.717 25.1187 119.643 25.7393 119.158 26.9805ZM122.867 45.6289C125.349 45.6289 126.59 44.7611 126.59 43.0254C126.59 42.1979 126.187 41.5319 125.379 41.0273C124.471 40.4521 122.912 40.0031 120.702 39.6802L119.915 39.5439C119.249 39.8971 118.76 40.3512 118.447 40.9062C118.134 41.4613 117.978 41.986 117.978 42.4805C117.988 42.985 118.109 43.4189 118.341 43.7822C118.573 44.1455 118.896 44.4634 119.31 44.7358C120.228 45.3312 121.414 45.6289 122.867 45.6289ZM137.398 36.002C137.398 36.8698 137.433 37.5358 137.504 38H133.689V16.3545H137.398V29.6143L144.315 22.1821H148.811L142.847 28.4639L146.253 33.1108C146.99 34.2814 147.545 35.1392 147.918 35.6841L148.917 37.0918C149.22 37.4854 149.472 37.7881 149.674 38H147.282C146.394 38 145.632 38.0757 144.997 38.2271L140.274 31.3247L137.398 34.3823V36.002ZM161.011 36.6226C159.72 37.6922 158.312 38.2271 156.788 38.2271C155.153 38.2271 153.872 37.6771 152.943 36.5771C152.055 35.5075 151.611 34.0392 151.611 32.1724V26.1631C151.611 24.1449 151.566 22.9894 151.475 22.6968C151.394 22.394 151.334 22.2023 151.293 22.1216C151.758 22.1619 152.242 22.1821 152.747 22.1821H154.003C154.336 22.1821 154.775 22.167 155.32 22.1367V30.9009C155.32 32.9797 155.885 34.1855 157.015 34.5186C157.358 34.6195 157.732 34.6699 158.135 34.6699C159.326 34.6699 160.285 34.236 161.011 33.3682V22.1821H164.765V36.0625C164.765 36.9505 164.806 37.5964 164.886 38H161.011V36.6226ZM176.632 34.6699C177.934 34.6699 178.827 34.3319 179.312 33.6558H179.433L179.478 37.1675C178.984 37.6619 178.065 37.9899 176.723 38.1514C176.36 38.2018 175.906 38.2271 175.361 38.2271C174.826 38.2271 174.241 38.1261 173.605 37.9243C172.979 37.7225 172.444 37.3945 172 36.9404C171.082 36.002 170.623 34.5337 170.623 32.5356V25.6636H168.337C168.327 25.3709 168.322 25.0732 168.322 24.7705V22.4395C168.322 22.2679 168.327 22.1821 168.337 22.1821H170.623V17.8682H174.332V22.1821H178.494V25.6636H174.332V31.8394C174.332 33.4237 174.771 34.3268 175.648 34.5488C175.931 34.6296 176.259 34.6699 176.632 34.6699Z" fill="white"/>
</svg>
