<svg width="143" height="85" viewBox="0 0 143 85" fill="none" xmlns="http://www.w3.org/2000/svg">
<path d="M19.3047 21.3012H35.1491V46.5972C35.1491 50.5923 38.2379 52.9893 40.6689 54.0093C38.0949 55.3693 30.2013 56.5593 24.3383 53.6693C20.8777 51.9693 19.3047 49.1643 19.3047 46.5123V21.3012ZM118.375 42.3132V39.6612H123.208V30.3452H117.889C115.858 24.7522 107.478 20.5532 97.4399 20.5532C85.8855 20.5532 76.5333 26.1122 76.5333 32.9802V54.7403C79.8223 55.0123 83.7405 54.7063 87.0867 53.0573C90.5473 51.3573 92.1203 48.5523 92.1203 45.9002V45.1012H100.042V35.7852H92.1203V32.9802H92.1489C92.1489 31.2292 94.5227 29.8182 97.4684 29.8182C100.414 29.8182 102.788 31.2292 102.788 32.9802V42.3132C102.788 49.1812 112.169 54.7403 123.723 54.7403V45.4582C120.749 45.4752 118.375 44.0642 118.375 42.3132ZM58.3437 30.3282V44.0132C58.3437 44.7952 57.2569 45.4242 55.9127 45.4242C54.5685 45.4242 53.4817 44.7952 53.4817 44.0132V30.3282H37.8089V46.4272C37.8089 49.3173 39.4677 52.9893 46.9895 54.1793C54.5113 55.3693 58.8871 52.9043 58.8871 52.9043C58.4867 54.5363 55.9127 55.7263 51.7657 55.9813C48.6197 56.1683 44.6157 55.5563 42.5851 55.0463V63.5803C47.7045 64.4813 53.1099 64.7703 58.3723 64.1583C67.9819 63.0533 74.0165 58.2763 74.0165 51.9353V30.3452H58.3437V30.3282Z" fill="#EA0B8C"/>
</svg>
