<svg width="327" height="94" viewBox="0 0 327 94" fill="none" xmlns="http://www.w3.org/2000/svg">
<rect width="326.587" height="94" rx="16" fill="black"/>
<path fill-rule="evenodd" clip-rule="evenodd" d="M39.1009 15.0229C38.4018 15.8205 38 17.0481 38 18.6433V75.3834C38 76.9785 38.4018 78.2061 39.1271 78.976L39.3166 79.1459L69.2676 47.3532V46.6388L39.2904 14.853L39.1009 15.0229Z" fill="url(#paint0_linear_109_2204)"/>
<path fill-rule="evenodd" clip-rule="evenodd" d="M79.157 58.0948L69.2676 47.375V46.6251L79.1602 35.9053L79.3736 36.049L91.074 43.2539C94.4244 45.3004 94.4244 48.6716 91.074 50.7462L79.3736 57.9511C79.3704 57.9511 79.157 58.0948 79.157 58.0948Z" fill="url(#paint1_linear_109_2204)"/>
<path fill-rule="evenodd" clip-rule="evenodd" d="M79.4222 57.8324L69.2145 47L39.0684 78.9806C40.1695 80.2355 42.0222 80.3776 44.0938 79.1505L79.4222 57.8324Z" fill="url(#paint2_linear_109_2204)"/>
<path fill-rule="evenodd" clip-rule="evenodd" d="M79.4222 36.1644L44.0938 14.861C42.0255 13.6054 40.1695 13.7754 39.0684 15.031L69.2112 46.9999L79.4222 36.1644Z" fill="url(#paint3_linear_109_2204)"/>
<path d="M142.984 31.9214H140.18C140.013 30.6684 139.746 29.4351 139.381 28.2367H135.336C134.956 29.4317 134.68 30.6658 134.513 31.9214H131.873C131.873 31.6712 132.553 29.5673 133.914 25.6096C135.274 21.6519 135.956 19.4751 135.96 19.0793H139.266C139.266 19.4524 139.884 21.5973 141.119 25.514C142.354 29.4308 142.971 31.5666 142.971 31.9214H142.984ZM138.927 26.3533C138.344 24.5475 137.843 22.7096 137.425 20.8467H137.322C136.888 22.7104 136.371 24.5483 135.772 26.3533H138.927Z" fill="#FCFCFD"/>
<path d="M154.238 31.8942H152.084C152.084 31.6267 151.279 30.2073 149.67 27.6362C147.998 24.9154 147.038 23.0789 146.809 22.0858H146.67C146.807 23.3771 146.88 24.6761 146.887 25.9765C146.887 27.5954 146.928 29.568 147.008 31.8942H144.859C144.948 29.8672 144.992 27.6362 144.992 25.2011C144.992 22.766 144.948 20.7254 144.859 19.0793H147.455C147.455 19.424 148.173 20.8116 149.609 23.2421C151.138 25.8133 152.015 27.5591 152.241 28.4796H152.373C152.244 27.1741 152.175 25.8618 152.168 24.5481C152.168 22.7751 152.126 20.9612 152.042 19.1066H154.238C154.154 20.7322 154.112 22.7728 154.112 25.2283C154.112 27.6838 154.154 29.9217 154.238 31.9214" fill="#FCFCFD"/>
<path d="M166.936 25.0213C166.959 26.7928 166.39 28.5113 165.337 29.8461C164.779 30.5417 164.086 31.0888 163.31 31.4465C162.535 31.8042 161.696 31.9633 160.857 31.912C159.985 31.912 158.789 31.8717 157.27 31.7909C157.342 29.8327 157.385 27.6255 157.385 25.1693C157.385 22.7131 157.342 20.7953 157.27 19.113H158.808C159.057 19.113 159.416 19.113 159.932 19.113L160.905 19.0793C163.021 19.0793 164.555 19.6648 165.507 20.8357C166.452 21.9813 166.963 23.4842 166.936 25.0347V25.0213ZM164.535 25.4587C164.567 24.3106 164.217 23.1894 163.55 22.3094C163.168 21.8611 162.699 21.5134 162.179 21.2922C161.66 21.0709 161.102 20.9816 160.546 21.0308C160.199 21.0373 159.852 21.0665 159.507 21.1183C159.568 22.4103 159.598 23.7696 159.598 25.1559C159.598 26.7036 159.628 28.2446 159.683 29.7654C160.059 29.8512 160.442 29.894 160.826 29.8933C161.353 29.9388 161.882 29.8447 162.369 29.6189C162.857 29.393 163.288 29.0419 163.629 28.5945C164.244 27.6834 164.563 26.5689 164.535 25.4318" fill="#FCFCFD"/>
<path d="M178.575 31.9214H176C175.635 30.4283 175.114 28.9891 174.447 27.6339C174.236 27.3494 173.967 27.1265 173.663 26.9845C173.359 26.8425 173.029 26.7856 172.701 26.8186H171.728C171.728 28.5037 171.728 30.2159 171.806 31.9146H169.389C169.465 29.9351 169.504 27.7064 169.504 25.2286C169.504 22.8459 169.465 20.8075 169.389 19.1133H170.9H172C172.556 19.1133 173.069 19.0793 173.541 19.0793C176.212 19.0793 177.548 20.1099 177.548 22.171C177.548 23.7949 176.786 24.9364 175.263 25.5683V25.7178C175.937 25.9867 176.492 26.5398 176.81 27.2602C177.516 28.7615 178.122 30.3195 178.623 31.9214H178.575ZM175.348 22.8844C175.348 21.5843 174.602 20.9343 173.112 20.9343C172.625 20.9293 172.14 20.9747 171.661 21.0702C171.722 22.0826 171.758 23.4076 171.758 25.0383H172.568C174.425 25.0383 175.352 24.3136 175.348 22.864" fill="#FCFCFD"/>
<path d="M191.173 25.2386C191.23 27.0792 190.64 28.8709 189.532 30.2265C189.022 30.865 188.396 31.3725 187.697 31.7145C186.997 32.0564 186.24 32.2248 185.477 32.2081C184.757 32.2264 184.041 32.074 183.377 31.7606C182.712 31.4473 182.114 30.98 181.621 30.3893C181.104 29.7726 180.7 29.0466 180.434 28.2533C180.168 27.46 180.044 26.6153 180.07 25.7679C180.013 23.9252 180.602 22.131 181.712 20.7733C182.219 20.1383 182.841 19.6328 183.536 19.291C184.231 18.9492 184.984 18.7789 185.742 18.7917C186.462 18.7737 187.177 18.9257 187.841 19.2378C188.505 19.5499 189.104 20.0152 189.598 20.6036C190.121 21.2205 190.529 21.9478 190.799 22.7435C191.069 23.5391 191.197 24.3873 191.173 25.2386ZM188.76 25.5168C188.808 24.3199 188.479 23.1422 187.83 22.1916C187.56 21.7935 187.211 21.4712 186.811 21.2498C186.411 21.0285 185.971 20.9142 185.525 20.9158C185.099 20.9197 184.679 21.0389 184.302 21.2633C183.925 21.4877 183.602 21.8107 183.359 22.2052C182.744 23.1443 182.431 24.2905 182.472 25.4558C182.426 26.6513 182.757 27.8266 183.407 28.7742C183.675 29.173 184.022 29.4968 184.42 29.7205C184.817 29.9441 185.256 30.0615 185.7 30.0636C186.127 30.0602 186.546 29.9413 186.924 29.7169C187.301 29.4924 187.624 29.1691 187.866 28.7742C188.484 27.8339 188.799 26.6852 188.76 25.5168Z" fill="#FCFCFD"/>
<path d="M196.084 31.9214H193.631C193.703 29.8765 193.745 27.6544 193.745 25.2141C193.745 22.7738 193.703 20.7766 193.631 19.0793H196.084C196.004 20.738 195.966 22.7829 195.97 25.2141C195.974 27.6453 196.012 29.8811 196.084 31.9214Z" fill="#FCFCFD"/>
<path d="M208.78 25.0212C208.803 26.7927 208.234 28.5112 207.181 29.846C206.623 30.5419 205.93 31.0893 205.154 31.447C204.378 31.8047 203.54 31.9637 202.7 31.9119C201.833 31.9119 200.637 31.8715 199.113 31.7907C199.186 29.8325 199.229 27.6254 199.229 25.1692C199.229 22.7131 199.186 20.7953 199.113 19.113H200.651C200.901 19.113 201.259 19.113 201.776 19.113L202.749 19.0793C204.865 19.0793 206.399 19.6648 207.351 20.8357C208.296 21.9812 208.807 23.4841 208.78 25.0347V25.0212ZM206.378 25.4586C206.414 24.31 206.063 23.1877 205.394 22.3093C205.012 21.8602 204.544 21.5121 204.024 21.2908C203.504 21.0694 202.945 20.9806 202.39 21.0308C202.044 21.0373 201.699 21.0665 201.357 21.1183C201.411 22.4103 201.442 23.7696 201.442 25.1558C201.442 26.7035 201.442 28.2445 201.533 29.7653C201.907 29.8511 202.288 29.8939 202.67 29.8931C203.197 29.9392 203.726 29.8454 204.213 29.6195C204.701 29.3936 205.133 29.0422 205.473 28.5944C206.091 27.6848 206.41 26.5692 206.378 25.4317" fill="#FCFCFD"/>
<path d="M225.663 31.9214H222.857C222.69 30.669 222.424 29.4359 222.063 28.2367H218.014C217.63 29.4306 217.354 30.6651 217.189 31.9214H214.553C214.553 31.6712 215.234 29.5673 216.595 25.6096C217.957 21.6519 218.64 19.4751 218.644 19.0793H221.954C221.954 19.4524 222.572 21.5973 223.809 25.514C225.045 29.4308 225.663 31.5666 225.663 31.9214ZM221.614 26.3533C221.031 24.5482 220.531 22.7101 220.117 20.8467H219.972C219.972 21.106 219.456 22.9347 218.426 26.3533H221.614Z" fill="#FCFCFD"/>
<path d="M235.901 22.4618C235.941 23.143 235.818 23.8239 235.545 24.4343C235.271 25.0447 234.858 25.5625 234.346 25.9344C233.194 26.7109 231.865 27.0979 230.521 27.0489C230.247 27.0489 230.047 27.0489 229.913 27.0489C229.913 28.2857 229.946 29.9099 230.01 31.9214H227.539C227.612 30.0322 227.654 27.8032 227.654 25.2344C227.654 22.8763 227.612 20.8444 227.539 19.1183H229.063C229.282 19.1183 229.67 19.1183 230.314 19.1183C230.958 19.1183 231.462 19.0843 231.911 19.0843C232.911 19.0372 233.901 19.3259 234.753 19.9134C235.129 20.1893 235.433 20.5716 235.635 21.0215C235.837 21.4714 235.928 21.973 235.901 22.4754V22.4618ZM233.636 23.019C233.636 21.6101 232.806 20.9078 231.146 20.9124C230.703 20.914 230.262 20.9641 229.828 21.0619C229.889 22.2987 229.925 23.6986 229.925 25.2684C230.071 25.2684 230.241 25.2684 230.429 25.2684C232.567 25.2684 233.636 24.5073 233.636 22.9987" fill="#FCFCFD"/>
<path d="M246.29 22.4615C246.328 23.1425 246.207 23.8229 245.938 24.4331C245.67 25.0432 245.263 25.5613 244.761 25.9342C243.627 26.71 242.321 27.097 240.999 27.0487C240.73 27.0487 240.533 27.0487 240.401 27.0487C240.401 28.2856 240.433 29.9098 240.497 31.9214H238.072C238.144 30.0322 238.186 27.8031 238.186 25.2342C238.186 22.876 238.144 20.8441 238.072 19.1179H239.571C239.786 19.1179 240.169 19.1179 240.796 19.1179C241.423 19.1179 241.924 19.0839 242.372 19.0839C243.354 19.0389 244.325 19.3276 245.161 19.913C245.531 20.1889 245.831 20.5712 246.029 21.0211C246.227 21.4711 246.317 21.9727 246.29 22.4751V22.4615ZM244.062 23.0188C244.062 21.6097 243.244 20.9075 241.608 20.912C241.175 20.914 240.743 20.964 240.318 21.0615C240.378 22.2984 240.413 23.6983 240.413 25.2682C240.557 25.2682 240.724 25.2682 240.909 25.2682C243.011 25.2682 244.062 24.5071 244.062 22.9984" fill="#FCFCFD"/>
<path d="M263.465 25.2385C263.519 27.0785 262.93 28.8692 261.825 30.2263C261.315 30.8666 260.687 31.3751 259.986 31.7171C259.285 32.0591 258.526 32.2265 257.762 32.2078C257.043 32.2275 256.327 32.0757 255.664 31.7622C255 31.4488 254.402 30.9809 253.91 30.3892C253.393 29.7733 252.989 29.0474 252.723 28.254C252.457 27.4605 252.334 26.6153 252.361 25.7678C252.304 23.9264 252.89 22.1332 253.995 20.7733C254.505 20.1349 255.132 19.6276 255.832 19.2857C256.532 18.9439 257.289 18.7754 258.052 18.7917C258.77 18.7737 259.485 18.9257 260.148 19.2378C260.812 19.5499 261.41 20.0152 261.903 20.6036C262.421 21.2226 262.824 21.951 263.09 22.7465C263.356 23.5421 263.479 24.389 263.453 25.2385H263.465ZM261.041 25.5167C261.088 24.319 260.757 23.1412 260.107 22.1916C259.838 21.7932 259.491 21.4706 259.092 21.2492C258.694 21.0278 258.255 20.9137 257.81 20.9158C257.384 20.9191 256.965 21.0381 256.588 21.2625C256.212 21.4869 255.889 21.8103 255.646 22.2051C255.032 23.1442 254.72 24.2904 254.76 25.4557C254.712 26.6516 255.043 27.8279 255.695 28.7741C255.965 29.1765 256.315 29.5025 256.717 29.7263C257.119 29.9501 257.561 30.0655 258.009 30.0634C258.435 30.0601 258.853 29.9411 259.229 29.7167C259.605 29.4922 259.926 29.1688 260.167 28.7741C260.784 27.8389 261.099 26.6944 261.059 25.5303" fill="#FCFCFD"/>
<path d="M275.295 31.8942H273.142C273.142 31.6267 272.337 30.2073 270.729 27.6362C269.052 24.9154 268.099 23.0653 267.87 22.0858H267.725C267.864 23.377 267.938 24.6759 267.948 25.9765C267.948 27.5954 267.985 29.568 268.069 31.8942H265.922C266.01 29.8672 266.055 27.6362 266.055 25.2011C266.055 22.766 266.01 20.7254 265.922 19.0793H268.509C268.509 19.4262 269.233 20.8138 270.669 23.2421C272.193 25.8133 273.069 27.5591 273.298 28.4796H273.455C273.324 27.1742 273.253 25.8619 273.244 24.5481C273.244 22.7728 273.208 20.9499 273.124 19.1066H275.301C275.223 20.7322 275.18 22.7728 275.18 25.2283C275.18 27.6838 275.223 29.9217 275.301 31.9214" fill="#FCFCFD"/>
<path fill-rule="evenodd" clip-rule="evenodd" d="M118.592 55.0074C118.592 47.953 124.754 42.2095 132.085 42.2095C136.138 42.2095 139.022 43.7409 141.198 45.7353L138.636 48.2007C137.081 46.7957 134.972 45.7057 132.082 45.7057C126.728 45.7057 122.544 49.8532 122.544 55.0047C122.544 60.1561 126.728 64.3091 132.079 64.3091C135.551 64.3091 137.525 62.9687 138.793 61.7468C139.83 60.7483 140.51 59.3137 140.773 57.3462H132.085V53.8581H144.314C144.443 54.4825 144.51 55.2308 144.51 56.0409C144.51 58.6597 143.763 61.9083 141.36 64.2202C139.022 66.5618 136.04 67.8106 132.082 67.8106C124.748 67.8106 118.586 62.0725 118.586 55.0128L118.592 55.0074ZM154.395 51.3254C149.66 51.3254 145.794 54.792 145.794 59.564C145.794 64.3117 149.657 67.8026 154.395 67.8026C159.134 67.8026 162.991 64.3064 162.991 59.5613C162.991 54.7894 159.131 51.3228 154.395 51.3254ZM154.395 64.5621C151.802 64.5621 149.562 62.5031 149.562 59.5667C149.562 56.6007 151.799 54.5713 154.395 54.5713C156.988 54.5713 159.226 56.598 159.226 59.5667C159.226 62.5004 156.991 64.5621 154.395 64.5621ZM173.15 51.3254C168.414 51.3254 164.554 54.792 164.554 59.564C164.554 64.3117 168.414 67.8026 173.15 67.8026C177.886 67.8026 181.746 64.3064 181.746 59.5613C181.746 54.7894 177.888 51.3228 173.15 51.3254ZM173.15 64.5621C170.557 64.5621 168.317 62.5031 168.317 59.5667C168.317 56.6007 170.554 54.5713 173.15 54.5713C175.743 54.5713 177.984 56.598 177.984 59.5667C177.984 62.5004 175.743 64.5621 173.15 64.5621ZM196.168 51.8261V53.1664H196.039C195.197 52.1948 193.575 51.3228 191.533 51.3228C187.251 51.3228 183.321 54.9455 183.321 59.599C183.321 64.2149 187.248 67.808 191.533 67.808C193.575 67.808 195.197 66.9359 196.039 65.9374H196.168V67.1216C196.168 70.2733 194.417 71.9609 191.595 71.9609C189.29 71.9609 187.863 70.3675 187.279 69.0299L184 70.3406C184.94 72.5234 187.441 75.2095 191.592 75.2095C196 75.2095 199.731 72.7091 199.731 66.6237V51.8234L196.168 51.8261ZM191.855 64.5621C189.262 64.5621 187.083 62.4681 187.083 59.599C187.083 56.6976 189.259 54.574 191.855 54.574C194.417 54.574 196.428 56.6949 196.428 59.599C196.431 62.4681 194.42 64.5621 191.855 64.5621ZM202.33 43.0842H206.095V67.3073H202.33V43.0842ZM216.414 64.5621C214.5 64.5621 213.135 63.7169 212.266 62.0671L223.717 57.505L223.323 56.5684C222.612 54.7301 220.436 51.3254 215.991 51.3254C211.58 51.3254 207.913 54.6656 207.913 59.5667C207.913 64.1826 211.547 67.8053 216.414 67.8053C220.341 67.8053 222.612 65.4987 223.552 64.1529L220.632 62.2824C219.656 63.6577 218.324 64.5647 216.414 64.5621ZM216.12 54.5094C217.611 54.5094 218.875 55.2281 219.298 56.2562L211.639 59.3164C211.544 56.1324 214.204 54.5094 216.12 54.5094ZM240.237 43.0842H231.236V67.3073H234.992V58.1322H240.24C244.405 58.1322 248.5 55.2308 248.5 50.6068C248.5 45.991 244.408 43.0869 240.246 43.0869L240.237 43.0842ZM240.335 54.7598H234.992V46.4539H240.335C243.143 46.4539 244.743 48.6959 244.743 50.6068C244.743 52.4855 243.143 54.7598 240.335 54.7598ZM254.326 67.3073V43.0842H250.57V67.3073H254.326ZM271.202 67.2643V57.9787C271.202 53.6778 267.862 51.2797 263.551 51.2797C260.835 51.2797 258.019 52.4343 256.852 54.9885L260.186 56.3262C260.9 54.9885 262.226 54.5498 263.621 54.5498C265.563 54.5498 267.537 55.6722 267.568 57.6692V57.9195C266.888 57.5454 265.434 56.9829 263.649 56.9829C260.055 56.9829 256.396 58.8831 256.396 62.4358C256.396 65.679 259.344 67.7649 262.648 67.7649C265.177 67.7649 266.567 66.6748 267.439 65.3991H267.568V67.2697H271.199L271.202 67.2643ZM263.104 64.5567C261.873 64.5567 260.156 63.9646 260.156 62.5031C260.156 60.6325 262.295 59.9112 264.142 59.9112C265.795 59.9112 266.57 60.253 267.577 60.7213C267.288 62.896 265.378 64.5298 263.104 64.5567ZM284.413 51.8099L280.105 62.3093H279.976L275.506 51.8099H271.459L278.161 66.4891L274.337 74.6523H278.256L288.586 51.8099H284.413Z" fill="white"/>
<defs>
<linearGradient id="paint0_linear_109_2204" x1="66.5781" y1="18.0334" x2="18.2413" y2="30.1667" gradientUnits="userSpaceOnUse">
<stop stop-color="#00A0FF"/>
<stop offset="0.007" stop-color="#00A1FF"/>
<stop offset="0.26" stop-color="#00BEFF"/>
<stop offset="0.512" stop-color="#00D2FF"/>
<stop offset="0.76" stop-color="#00DFFF"/>
<stop offset="1" stop-color="#00E3FF"/>
</linearGradient>
<linearGradient id="paint1_linear_109_2204" x1="95.4338" y1="47.0016" x2="37.5271" y2="47.0016" gradientUnits="userSpaceOnUse">
<stop stop-color="#FFE000"/>
<stop offset="0.409" stop-color="#FFBD00"/>
<stop offset="0.775" stop-color="#FFA500"/>
<stop offset="1" stop-color="#FF9C00"/>
</linearGradient>
<linearGradient id="paint2_linear_109_2204" x1="73.8716" y1="52.8929" x2="31.8913" y2="119.495" gradientUnits="userSpaceOnUse">
<stop stop-color="#FF3A44"/>
<stop offset="1" stop-color="#C31162"/>
</linearGradient>
<linearGradient id="paint3_linear_109_2204" x1="31.4798" y1="-3.87503" x2="50.2259" y2="25.8801" gradientUnits="userSpaceOnUse">
<stop stop-color="#32A071"/>
<stop offset="0.069" stop-color="#2DA771"/>
<stop offset="0.476" stop-color="#15CF74"/>
<stop offset="0.801" stop-color="#06E775"/>
<stop offset="1" stop-color="#00F076"/>
</linearGradient>
</defs>
</svg>
