<svg width="126" height="66" viewBox="0 0 126 66" fill="none" xmlns="http://www.w3.org/2000/svg">
<path d="M97.4027 23.9145H90.6027C90.2027 23.9145 89.8027 24.3865 89.6027 24.8586L86.8027 45.6289C86.8027 46.101 87.0027 46.337 87.4027 46.337H91.0027C91.4027 46.337 91.6027 46.101 91.6027 45.6289L92.4027 39.7283C92.4027 39.2562 92.8027 38.7842 93.4027 38.7842H95.6027C100.203 38.7842 102.803 36.1879 103.403 30.9953C103.803 28.871 103.403 26.9828 102.603 25.8027C101.403 24.6225 99.6027 23.9145 97.4027 23.9145ZM98.2027 31.7034C97.8027 34.5357 96.0027 34.5357 94.2027 34.5357H93.0027L93.8027 29.1071C93.8027 28.871 94.0027 28.635 94.4027 28.635H94.8027C96.0027 28.635 97.2027 28.635 97.8027 29.5791C98.2027 29.8151 98.2027 30.5232 98.2027 31.7034Z" fill="#139AD6"/>
<path d="M48.3949 23.9145H41.5949C41.1949 23.9145 40.7949 24.3865 40.5949 24.8586L37.7949 45.6289C37.7949 46.101 37.9949 46.337 38.3949 46.337H41.5949C41.9949 46.337 42.3949 45.865 42.5949 45.3929L43.3949 39.7283C43.3949 39.2562 43.7949 38.7842 44.3949 38.7842H46.5949C51.1949 38.7842 53.7949 36.1879 54.3949 30.9953C54.7949 28.871 54.3949 26.9828 53.5949 25.8027C52.3949 24.6225 50.7949 23.9145 48.3949 23.9145ZM49.1949 31.7034C48.7949 34.5357 46.9949 34.5357 45.1949 34.5357H44.1949L44.9949 29.1071C44.9949 28.871 45.1949 28.635 45.5949 28.635H45.9949C47.1949 28.635 48.3949 28.635 48.9949 29.5791C49.1949 29.8151 49.3949 30.5232 49.1949 31.7034Z" fill="#263B80"/>
<path d="M68.9979 31.4656H65.7979C65.5979 31.4656 65.1979 31.7016 65.1979 31.9377L64.9979 33.1178L64.7979 32.6458C63.9979 31.4656 62.5979 30.9936 60.9979 30.9936C57.3979 30.9936 54.1979 34.2979 53.5979 38.7825C53.1979 41.1427 53.7979 43.267 54.7979 44.6831C55.7979 46.0993 57.1979 46.5713 58.9979 46.5713C61.9979 46.5713 63.5979 44.4471 63.5979 44.4471L63.3979 45.6272C63.3979 46.0993 63.5979 46.3353 63.9979 46.3353H66.9979C67.3979 46.3353 67.7979 45.8633 67.9979 45.3912L69.7979 32.1737C69.5979 31.9377 69.1979 31.4656 68.9979 31.4656ZM64.3979 39.0185C63.9979 41.1427 62.5979 42.7949 60.5979 42.7949C59.5979 42.7949 58.7979 42.3229 58.3979 41.8508C57.9979 41.1427 57.7979 40.1986 57.7979 39.0185C57.9979 36.8942 59.5979 35.242 61.3979 35.242C62.3979 35.242 62.9979 35.7141 63.5979 36.1862C64.1979 36.8942 64.3979 38.0744 64.3979 39.0185Z" fill="#263B80"/>
<path d="M117.795 31.4656H114.595C114.395 31.4656 113.995 31.7016 113.995 31.9377L113.795 33.1178L113.595 32.6458C112.795 31.4656 111.395 30.9936 109.795 30.9936C106.195 30.9936 102.995 34.2979 102.395 38.7825C101.995 41.1427 102.595 43.267 103.595 44.6831C104.595 46.0993 105.995 46.5713 107.795 46.5713C110.795 46.5713 112.395 44.4471 112.395 44.4471L112.195 45.6272C112.195 46.0993 112.395 46.3353 112.795 46.3353H115.795C116.195 46.3353 116.595 45.8633 116.795 45.3912L118.595 32.1737C118.395 31.9377 118.195 31.4656 117.795 31.4656ZM113.195 39.0185C112.795 41.1427 111.395 42.7949 109.395 42.7949C108.395 42.7949 107.595 42.3229 107.195 41.8508C106.795 41.1427 106.595 40.1986 106.595 39.0185C106.795 36.8942 108.395 35.242 110.195 35.242C111.195 35.242 111.795 35.7141 112.395 36.1862C113.195 36.8942 113.395 38.0744 113.195 39.0185Z" fill="#139AD6"/>
<path d="M86.4 31.4652H83C82.6 31.4652 82.4 31.7013 82.2 31.9373L77.8 39.9622L75.8 32.4093C75.6 31.9373 75.4 31.7013 74.8 31.7013H71.6C71.2 31.7013 71 32.1733 71 32.6454L74.6 45.1548L71.2 50.8194C71 51.2915 71.2 51.9996 71.6 51.9996H74.8C75.2 51.9996 75.4 51.7636 75.6 51.5275L86.6 32.8814C87.2 32.1733 86.8 31.4652 86.4 31.4652Z" fill="#263B80"/>
<path d="M121.601 24.6217L118.801 45.8641C118.801 46.3362 119.001 46.5722 119.401 46.5722H122.201C122.601 46.5722 123.001 46.1001 123.201 45.6281L126.001 24.8577C126.001 24.3857 125.801 24.1496 125.401 24.1496H122.201C122.001 23.9136 121.801 24.1496 121.601 24.6217Z" fill="#139AD6"/>
<path d="M22.9999 16.8327C21.5999 14.9445 19 14.0004 15.4 14.0004H5.39999C4.79999 14.0004 4.19999 14.7085 3.99999 15.4166L0 46.3361C0 47.0442 0.399999 47.5162 0.799998 47.5162H6.99998L8.59998 35.9509V36.423C8.79998 35.7149 9.39998 35.0068 9.99998 35.0068H13C18.8 35.0068 23.1999 32.1745 24.5999 24.3856C24.5999 24.1496 24.5999 23.9135 24.5999 23.6775C24.3999 23.6775 24.3999 23.6775 24.5999 23.6775C24.7999 20.6091 24.3999 18.7209 22.9999 16.8327Z" fill="#263B80"/>
<path d="M24.4004 23.6752C24.4004 23.9112 24.4004 24.1473 24.4004 24.3833C23.0004 32.4082 18.6004 35.0045 12.8004 35.0045H9.80039C9.20039 35.0045 8.60039 35.7126 8.40039 36.4207L6.40039 50.8183C6.40039 51.2904 6.60039 51.7624 7.20039 51.7624H12.4004C13.0004 51.7624 13.6004 51.2904 13.6004 50.5823V50.3462L14.6004 43.0294V42.5574C14.6004 41.8493 15.2004 41.3772 15.8004 41.3772H16.6004C21.6004 41.3772 25.6004 39.017 26.6004 31.9361C27.0004 29.1038 26.8004 26.5075 25.6004 24.8553C25.4004 24.3833 25.0004 23.9112 24.4004 23.6752Z" fill="#139AD6"/>
<path d="M23.0015 22.9673C22.8015 22.9673 22.6015 22.7312 22.4015 22.7312C22.2015 22.7312 22.0015 22.7312 21.8015 22.4952C21.0015 22.2592 20.2015 22.2592 19.2015 22.2592H11.4016C11.2016 22.2592 11.0016 22.2592 10.8016 22.4952C10.4016 22.7312 10.2016 23.2033 10.2016 23.6753L8.60156 35.9487V36.4208C8.80156 35.7127 9.40156 35.0046 10.0016 35.0046H13.0016C18.8015 35.0046 23.2015 32.1723 24.6015 24.3834C24.6015 24.1474 24.6015 23.9114 24.8015 23.6753C24.4015 23.4393 24.2015 23.2033 23.8015 23.2033C23.2015 22.9673 23.2015 22.9673 23.0015 22.9673Z" fill="#232C65"/>
</svg>
