<svg width="170" height="85" viewBox="0 0 170 85" fill="none" xmlns="http://www.w3.org/2000/svg">
<path d="M19.21 13.561C19.55 13.561 19.72 13.7778 20.06 13.9946C18.02 15.0785 15.98 17.8967 14.96 23.9666L11.22 25.2673C12.41 20.9317 14.79 13.561 19.21 13.561ZM21.08 15.7289C21.42 17.0296 21.76 18.5471 21.76 20.9317C21.76 21.1485 21.76 21.1485 21.76 21.3652L16.83 23.0995C17.85 18.5471 19.55 16.596 21.08 15.7289ZM25.5 19.631L23.29 20.4981C23.29 20.2813 23.29 20.0645 23.29 19.8478C23.29 17.8967 23.12 16.3792 22.78 15.0785C23.97 15.5121 24.99 17.4631 25.5 19.631ZM36.55 23.0995C36.55 22.8827 36.38 22.6659 36.21 22.6659C35.87 22.6659 32.3 22.2324 32.3 22.2324C32.3 22.2324 29.75 18.9806 29.41 18.7638C29.07 18.3303 28.56 18.5471 28.39 18.5471C28.39 18.5471 27.88 18.7638 27.03 19.1974C26.18 16.1624 24.65 13.3443 22.1 13.3443H21.93C21.25 12.0436 20.23 11.61 19.38 11.61C13.26 11.3932 10.37 21.1485 9.35 26.1345C7.99 26.568 6.63 27.2184 5.1 27.8687C3.74 28.3023 3.74 28.5191 3.57 30.0366C3.4 31.1205 0 65.3722 0 65.3722L27.03 71.8757L41.65 67.7569C41.65 67.7569 36.55 23.5331 36.55 23.0995Z" fill="#8DB849"/>
<path d="M36.0393 22.6658C35.8693 22.6658 32.2993 22.2322 32.2993 22.2322C32.2993 22.2322 29.7493 18.9804 29.4093 18.7637C29.2393 18.5469 29.2393 18.5469 29.0693 18.5469L27.0293 71.8755L41.6493 67.7567C41.6493 67.7567 36.5493 23.5329 36.5493 23.0993C36.5493 22.8825 36.2093 22.6658 36.0393 22.6658Z" fill="#5A863E"/>
<path d="M22.0991 33.0716L20.2291 40.0086C20.2291 40.0086 18.6991 38.9247 16.6591 38.9247C13.7691 38.9247 13.5991 41.0926 13.5991 41.7429C13.5991 44.7779 20.0591 46.0786 20.0591 53.4492C20.0591 59.3023 17.1691 62.9877 13.2591 62.9877C8.66906 62.9877 6.28906 59.3023 6.28906 59.3023L7.47906 54.0996C7.47906 54.0996 9.85906 56.7009 11.8991 56.7009C13.2591 56.7009 13.7691 55.4002 13.7691 54.3163C13.7691 50.1975 8.49906 49.9807 8.49906 43.2604C8.49906 37.624 11.7291 32.2044 18.0191 32.2044C20.9091 31.9877 22.0991 33.0716 22.0991 33.0716Z" fill="#FFFFFE"/>
<path d="M58.8192 45.8619C57.2892 44.7779 56.6092 43.9108 56.6092 42.8269C56.6092 41.3094 57.6292 40.4423 59.3292 40.4423C61.1992 40.4423 62.8992 41.5262 62.8992 41.5262L64.2592 36.3234C64.2592 36.3234 63.0692 35.0227 59.4992 35.0227C54.3992 35.0227 50.9992 38.708 50.9992 43.9108C50.9992 46.9458 52.6992 49.1136 54.7392 50.6311C56.4392 51.9318 57.1192 52.7989 57.1192 54.0996C57.1192 55.4003 56.2692 56.701 54.5692 56.701C52.1892 56.701 49.8092 55.1835 49.8092 55.1835L48.4492 60.3863C48.4492 60.3863 50.4892 62.1206 54.0592 62.1206C59.1592 62.1206 62.8992 58.8689 62.8992 53.0157C62.8992 49.764 61.0292 47.3793 58.8192 45.8619ZM79.3892 34.8059C76.8392 34.8059 74.7992 36.3234 73.2692 38.708L75.4792 23.9668H69.6992L64.0892 61.4703H69.8692L71.7392 48.68C72.4192 43.9108 74.4592 40.8758 76.3292 40.8758C77.6892 40.8758 78.1992 41.9598 78.1992 43.694C78.1992 44.7779 78.1992 45.8619 78.0292 46.9458L75.8192 61.687H81.5992L83.8092 46.5122C83.9792 44.9947 84.1492 43.0437 84.1492 41.743C84.1492 37.4073 82.4492 34.8059 79.3892 34.8059ZM94.1792 56.2675C92.1392 56.2675 91.4592 54.0996 91.4592 51.4982C91.4592 47.3793 93.1592 40.4423 96.2192 40.4423C98.2592 40.4423 98.9392 42.6101 98.9392 44.7779C98.9392 49.5472 97.2392 56.2675 94.1792 56.2675ZM97.0692 34.8059C90.0992 34.8059 85.5092 42.8269 85.5092 51.715C85.5092 57.3514 88.2292 61.9038 93.4992 61.9038C100.299 61.9038 104.889 54.0996 104.889 44.9947C104.889 39.7919 102.509 34.8059 97.0692 34.8059ZM114.069 56.4842C112.539 56.4842 111.689 55.4003 111.689 55.4003L112.709 48.4633C113.389 43.9108 115.259 40.8758 117.299 40.8758C118.999 40.8758 119.679 43.0437 119.679 44.9947C119.509 49.764 117.299 56.4842 114.069 56.4842ZM119.679 34.8059C115.769 34.8059 113.559 39.1416 113.559 39.1416L113.899 35.2395H108.799C108.629 37.8409 108.119 41.9598 107.609 44.9947L103.529 71.8758H109.309L110.839 61.0367H111.009C111.009 61.0367 112.199 61.9038 114.409 61.9038C121.209 61.9038 125.629 53.0157 125.629 44.1276C125.629 39.3584 123.929 34.8059 119.679 34.8059ZM133.789 24.4003C131.919 24.4003 130.559 26.3514 130.559 28.736C130.559 30.9038 131.579 32.4213 133.279 32.4213C135.149 32.4213 136.679 30.9038 136.679 28.0856C136.679 25.9178 135.489 24.4003 133.789 24.4003ZM125.799 61.4703H131.579L135.489 35.4563H129.709L125.799 61.4703ZM150.109 35.4563H146.029L146.199 34.1556C146.539 31.5542 147.729 29.3863 149.599 29.3863C150.619 29.3863 151.469 29.8199 151.469 29.8199L152.659 23.9668C152.659 23.9668 151.639 23.3164 149.599 23.3164C147.559 23.3164 145.519 23.9668 143.989 25.701C141.949 27.8689 141.099 30.9038 140.589 33.9388L140.419 35.2395H137.699L136.849 40.8758H139.569L136.509 61.4703H142.289L145.349 40.8758H149.259L150.109 35.4563ZM163.879 35.4563C163.879 35.4563 160.309 46.9458 158.609 53.2325C158.439 51.2814 157.249 35.4563 157.249 35.4563H151.129L154.529 59.3024C154.529 59.736 154.529 60.1696 154.359 60.6031C153.679 62.3374 152.489 63.8549 151.299 64.9388C150.279 66.0227 148.919 66.6731 148.069 67.1066L149.599 73.3933C150.789 73.1765 153.169 71.8758 155.209 69.4912C157.759 66.4563 160.309 61.4703 162.689 54.9668L169.659 35.673L163.879 35.4563Z" fill="#1A1919"/>
</svg>
