<svg width="120" height="66" viewBox="0 0 120 66" fill="none" xmlns="http://www.w3.org/2000/svg">
<path d="M17.0277 28.1335C17.0277 26.9621 17.9166 26.5113 19.3891 26.5113C21.5 26.5113 24.1666 27.2024 26.2777 28.4341V21.3745C23.9723 20.3832 21.6945 19.9926 19.3891 19.9926C13.75 19.9926 10 23.177 10 28.4943C10 36.7851 20.5555 35.4635 20.5555 39.0384C20.5555 40.4199 19.4445 40.8707 17.8889 40.8707C15.5834 40.8707 12.6389 39.8492 10.3055 38.4674V45.617C12.8889 46.8186 15.5 47.3292 17.8889 47.3292C23.6666 47.3292 27.6389 44.2352 27.6389 38.858C27.6111 29.906 17.0277 31.498 17.0277 28.1335ZM35.8055 13.9847L29.0277 15.5467L29 39.6089C29 44.055 32.0834 47.3292 36.1945 47.3292C38.4723 47.3292 40.1389 46.8786 41.0555 46.3379V40.2398C40.1668 40.6303 35.7777 42.0121 35.7777 37.5662V26.9019H41.0555V20.5034H35.7777L35.8055 13.9847ZM49.6945 22.7263L49.25 20.5034H43.25V46.7884H50.1945V28.9748C51.8332 26.6617 54.6111 27.0822 55.4723 27.4126V20.5034C54.5834 20.1428 51.3334 19.4819 49.6945 22.7263ZM57.1666 20.5034H64.1389V46.7884H57.1666V20.5034ZM57.1666 18.2203L64.1389 16.5981V10.5L57.1666 12.0922V18.2201V18.2203ZM78.6389 19.9926C75.9166 19.9926 74.1666 21.3745 73.1945 22.3359L72.8332 20.4734H66.7223V55.5L73.6666 53.908L73.6945 45.4066C74.6945 46.1877 76.1666 47.2992 78.6111 47.2992C83.5834 47.2992 88.1111 42.9734 88.1111 33.4507C88.0834 24.739 83.5 19.9926 78.6389 19.9926ZM76.9723 40.6903C75.3334 40.6903 74.3609 40.0596 73.6945 39.2785L73.6666 28.1335C74.3889 27.2624 75.3889 26.6617 76.9723 26.6617C79.5 26.6617 81.25 29.7257 81.25 33.6609C81.25 37.6863 79.5277 40.6903 76.9723 40.6903ZM110 33.7511C110 26.0608 106.555 19.9926 99.9723 19.9926C93.3609 19.9926 89.3609 26.061 89.3609 33.6911C89.3609 42.733 94.0834 47.2992 100.861 47.2992C104.167 47.2992 106.667 46.4881 108.555 45.3467V39.3385C106.667 40.36 104.5 40.9909 101.75 40.9909C99.0555 40.9909 96.6666 39.9694 96.3611 36.4247H109.945C109.945 36.034 110 34.472 110 33.7511ZM96.2777 30.8973C96.2777 27.5028 98.1945 26.0908 99.9445 26.0908C101.639 26.0908 103.445 27.5028 103.445 30.8973H96.2777Z" fill="#6772E5"/>
</svg>
