<svg width="97" height="66" viewBox="0 0 97 66" fill="none" xmlns="http://www.w3.org/2000/svg">
<path d="M36.9506 18.5276L24.3841 47.541H16.1821L10.0025 24.389C9.62206 22.9611 9.29694 22.4417 8.15619 21.8354C6.28756 20.8579 3.21388 19.9408 0.5 19.3699L0.689938 18.5277H13.886C15.569 18.5277 17.0821 19.6139 17.4626 21.4863L20.7301 38.2787L28.8009 18.5277H36.9506V18.5276ZM69.0779 38.0641C69.1143 30.4108 58.133 29.9943 58.2119 26.5704C58.2333 25.5252 59.2571 24.4193 61.4992 24.1401C62.6126 23.9968 65.6765 23.8917 69.1492 25.4343L70.5103 19.2846C68.6418 18.6284 66.2401 18 63.2551 18C55.5884 18 50.1912 21.9457 50.1457 27.5912C50.0954 31.7662 53.9964 34.0958 56.9388 35.4861C59.9602 36.9088 60.9704 37.8172 60.9597 39.0931C60.9399 41.0404 58.5491 41.8915 56.3189 41.9298C52.418 41.9885 50.1554 40.9098 48.3485 40.0956L46.9441 46.4567C48.7539 47.2607 52.1051 47.9588 55.5731 48C63.7216 47.9996 69.0522 44.0961 69.0779 38.0641ZM89.324 47.5412H96.5L90.2384 18.5277H83.6139C82.1253 18.5277 80.8704 19.3677 80.3114 20.6545L68.6786 47.5412H76.8208L78.437 43.2082H88.3899L89.324 47.5412ZM80.6683 37.2615L84.7529 26.3675L87.1029 37.2615H80.6683ZM48.0359 18.5276L41.6178 47.541H33.8592L40.2789 18.5276H48.0359Z" fill="black"/>
</svg>
