<svg width="190" height="85" viewBox="0 0 190 85" fill="none" xmlns="http://www.w3.org/2000/svg">
<path fill-rule="evenodd" clip-rule="evenodd" d="M148.412 34.495C149.061 35.6689 149.274 37.0044 149.344 38.5058L149.436 40.5072V54.5014L149.531 56.5047C149.719 59.7763 152.024 62.1956 155.173 62.4014L157.076 62.5V40.5072L157.17 38.5058C157.248 37.0213 157.459 35.6604 158.119 34.4781C158.791 33.2654 159.756 32.2593 160.917 31.5607C162.079 30.8622 163.395 30.4958 164.734 30.4983C166.073 30.5009 167.388 30.8723 168.547 31.5753C169.706 32.2783 170.668 33.2881 171.336 34.5034C171.986 35.6773 172.188 37.0381 172.266 38.5058L172.361 40.5008V54.5014L172.455 56.5047C172.651 59.7932 174.938 62.2124 178.097 62.4014L180 62.5V38.506C180 34.2632 178.391 30.194 175.526 27.1932C172.661 24.1925 168.776 22.5058 164.723 22.5041C162.554 22.5017 160.41 22.984 158.433 23.9186C156.457 24.8533 154.694 26.2189 153.261 27.9241C151.828 26.2196 150.065 24.8544 148.088 23.9195C146.112 22.9846 143.968 22.5015 141.799 22.5023C138.626 22.5023 135.682 23.5103 133.243 25.2511C131.755 23.5123 128.426 22.5021 126.514 22.5021V62.5L128.426 62.4014C131.623 62.1809 133.933 59.8268 134.057 56.5047L134.16 54.5014V40.5072L134.254 38.5058C134.334 36.9961 134.535 35.6689 135.186 34.4867C135.859 33.2747 136.824 32.2688 137.984 31.5694C139.145 30.87 140.46 30.5015 141.799 30.5008C143.139 30.5011 144.455 30.8703 145.616 31.5713C146.776 32.2724 147.741 33.2807 148.412 34.495V34.495ZM17.6395 62.4034L19.5508 62.4998H48.2009L48.1067 60.505C47.848 57.2163 45.6237 54.8141 42.4729 54.5998L40.5616 54.5012H23.3734L46.2896 30.4988L46.1954 28.506C46.047 25.1838 43.7285 22.7834 40.5616 22.6008L38.6503 22.5107L10 22.5021L10.0942 24.5034C10.3449 27.7603 12.6013 30.2131 15.7261 30.4022L17.6395 30.5008H34.8275L11.9115 54.5035L12.0057 56.5047C12.1942 59.8016 14.4666 62.1892 17.6395 62.4014V62.4034ZM119.015 28.3568C120.789 30.2139 122.196 32.4186 123.157 34.8451C124.117 37.2717 124.611 39.8725 124.611 42.499C124.611 45.1256 124.117 47.7264 123.157 50.1529C122.196 52.5795 120.789 54.7842 119.015 56.6412C115.431 60.3908 110.572 62.4971 105.505 62.4971C100.439 62.4971 95.5796 60.3908 91.9956 56.6412C84.5367 48.8314 84.5367 36.1666 91.9956 28.3568C93.7679 26.5004 95.8722 25.0277 98.1882 24.0227C100.504 23.0178 102.986 22.5004 105.493 22.5C108.004 22.4982 110.491 23.0147 112.811 24.0201C115.132 25.0254 117.24 26.4998 119.015 28.359V28.3568ZM113.61 34.0203C115.759 36.2715 116.965 39.3238 116.965 42.5063C116.965 45.6888 115.759 48.7411 113.61 50.9923C111.46 53.2419 108.545 54.5055 105.505 54.5055C102.466 54.5055 99.5506 53.2419 97.4006 50.9923C95.2521 48.7411 94.0453 45.6888 94.0453 42.5063C94.0453 39.3238 95.2521 36.2715 97.4006 34.0203C99.5506 31.7708 102.466 30.5072 105.505 30.5072C108.545 30.5072 111.46 31.7708 113.61 34.0203V34.0203ZM65.4052 22.5C67.9123 22.5007 70.3947 23.0185 72.7106 24.0238C75.0266 25.0291 77.1307 26.5022 78.9029 28.359C86.3638 36.1666 86.3638 48.8336 78.9029 56.6412C75.3188 60.3908 70.4596 62.4971 65.3931 62.4971C60.3265 62.4971 55.4673 60.3908 51.8832 56.6412C44.4243 48.8314 44.4243 36.1666 51.8832 28.3568C53.6556 26.5004 55.7598 25.0277 58.0758 24.0227C60.3918 23.0178 62.8741 22.5004 65.3811 22.5H65.4052ZM73.4977 34.0162C75.6467 36.2675 76.854 39.3202 76.854 42.5032C76.854 45.6862 75.6467 48.7389 73.4977 50.9902C71.3477 53.2397 68.4325 54.5033 65.3931 54.5033C62.3536 54.5033 59.4385 53.2397 57.2884 50.9902C55.1399 48.739 53.9331 45.6867 53.9331 42.5042C53.9331 39.3217 55.1399 36.2694 57.2884 34.0182C59.4385 31.7687 62.3536 30.505 65.3931 30.505C68.4327 30.505 71.3478 31.7687 73.4979 34.0182L73.4977 34.0162Z" fill="#2D8CFF"/>
</svg>
